<?xml version="1.0" encoding="utf-8"?>
<!-- Generator: Adobe Illustrator 24.0.1, SVG Export Plug-In . SVG Version: 6.00 Build 0)  -->
<svg version="1.1" id="Layer_1" xmlns="http://www.w3.org/2000/svg" xmlns:xlink="http://www.w3.org/1999/xlink" x="0px" y="0px"
	 viewBox="0 0 256 256" style="enable-background:new 0 0 256 256;" xml:space="preserve">
<style type="text/css">
	.st0{fill:#00AEEF;}
	.st1{fill:#FFFFFF;stroke:#00A651;stroke-width:3;stroke-miterlimit:10;}
	.st2{fill:#FFFFFF;stroke:#00AEEF;stroke-width:3;stroke-miterlimit:10;}
	.st3{fill:#EBEBEB;}
	.st4{fill:#FFC829;}
	.st5{fill:#DCDBDB;}
	.st6{fill:#263238;}
	.st7{fill:#FFFFFF;}
	.st8{fill:#00A651;}
</style>
<rect x="155.21" y="133.86" transform="matrix(2.944939e-11 -1 1 2.944939e-11 69.8541 340.5742)" class="st0" width="100" height="3"/>
<rect x="4.21" y="3.85" class="st1" width="108.36" height="175.72"/>
<rect x="3.81" y="185.85" class="st2" width="249.12" height="61.72"/>
<g>
	<path d="M21.53,195.84h0.87v6.01h2.88v0.73h-3.75V195.84z"/>
	<path d="M30.46,200.12c0,1.79-1.24,2.57-2.41,2.57c-1.31,0-2.32-0.96-2.32-2.49c0-1.62,1.06-2.57,2.4-2.57
		C29.52,197.63,30.46,198.64,30.46,200.12z M26.62,200.17c0,1.06,0.61,1.86,1.47,1.86c0.84,0,1.47-0.79,1.47-1.88
		c0-0.82-0.41-1.86-1.45-1.86C27.07,198.29,26.62,199.25,26.62,200.17z"/>
	<path d="M31.57,199.25c0-0.57-0.01-1.06-0.04-1.51h0.77l0.03,0.95h0.04c0.22-0.65,0.75-1.06,1.34-1.06c0.1,0,0.17,0.01,0.25,0.03
		v0.83c-0.09-0.02-0.18-0.03-0.3-0.03c-0.62,0-1.06,0.47-1.18,1.13c-0.02,0.12-0.04,0.26-0.04,0.41v2.58h-0.87V199.25z"/>
	<path d="M35.23,200.32c0.02,1.19,0.78,1.68,1.66,1.68c0.63,0,1.01-0.11,1.34-0.25l0.15,0.63c-0.31,0.14-0.84,0.3-1.61,0.3
		c-1.49,0-2.38-0.98-2.38-2.44c0-1.46,0.86-2.61,2.27-2.61c1.58,0,2,1.39,2,2.28c0,0.18-0.02,0.32-0.03,0.41H35.23z M37.81,199.69
		c0.01-0.56-0.23-1.43-1.22-1.43c-0.89,0-1.28,0.82-1.35,1.43H37.81z"/>
	<path d="M39.75,199.05c0-0.5-0.01-0.91-0.04-1.31h0.77l0.04,0.78h0.03c0.27-0.46,0.72-0.89,1.52-0.89c0.66,0,1.16,0.4,1.37,0.97
		h0.02c0.15-0.27,0.34-0.48,0.54-0.63c0.29-0.22,0.61-0.34,1.07-0.34c0.64,0,1.59,0.42,1.59,2.1v2.85H45.8v-2.74
		c0-0.93-0.34-1.49-1.05-1.49c-0.5,0-0.89,0.37-1.04,0.8c-0.04,0.12-0.07,0.28-0.07,0.44v2.99h-0.86v-2.9
		c0-0.77-0.34-1.33-1.01-1.33c-0.55,0-0.95,0.44-1.09,0.88c-0.05,0.13-0.07,0.28-0.07,0.43v2.92h-0.86V199.05z"/>
	<path d="M51.11,195.84v6.74h-0.87v-6.74H51.11z"/>
	<path d="M52.7,199.32c0-0.62-0.02-1.12-0.04-1.58h0.79l0.04,0.83h0.02c0.36-0.59,0.93-0.94,1.72-0.94c1.17,0,2.05,0.99,2.05,2.46
		c0,1.74-1.06,2.6-2.2,2.6c-0.64,0-1.2-0.28-1.49-0.76h-0.02v2.63H52.7V199.32z M53.57,200.61c0,0.13,0.02,0.25,0.04,0.36
		c0.16,0.61,0.69,1.03,1.32,1.03c0.93,0,1.47-0.76,1.47-1.87c0-0.97-0.51-1.8-1.44-1.8c-0.6,0-1.16,0.43-1.33,1.09
		c-0.03,0.11-0.06,0.24-0.06,0.36V200.61z"/>
	<path d="M58.27,201.68c0.26,0.17,0.72,0.35,1.16,0.35c0.64,0,0.94-0.32,0.94-0.72c0-0.42-0.25-0.65-0.9-0.89
		c-0.87-0.31-1.28-0.79-1.28-1.37c0-0.78,0.63-1.42,1.67-1.42c0.49,0,0.92,0.14,1.19,0.3l-0.22,0.64c-0.19-0.12-0.54-0.28-0.99-0.28
		c-0.52,0-0.81,0.3-0.81,0.66c0,0.4,0.29,0.58,0.92,0.82c0.84,0.32,1.27,0.74,1.27,1.46c0,0.85-0.66,1.45-1.81,1.45
		c-0.53,0-1.02-0.13-1.36-0.33L58.27,201.68z"/>
	<path d="M66.4,201.26c0,0.5,0.01,0.94,0.04,1.32h-0.78l-0.05-0.79h-0.02c-0.23,0.39-0.74,0.9-1.6,0.9c-0.76,0-1.67-0.42-1.67-2.12
		v-2.83h0.88v2.68c0,0.92,0.28,1.54,1.08,1.54c0.59,0,1-0.41,1.16-0.8c0.05-0.13,0.08-0.29,0.08-0.45v-2.97h0.88V201.26z"/>
	<path d="M67.86,199.05c0-0.5-0.01-0.91-0.04-1.31h0.77l0.04,0.78h0.03c0.27-0.46,0.72-0.89,1.52-0.89c0.66,0,1.16,0.4,1.37,0.97
		h0.02c0.15-0.27,0.34-0.48,0.54-0.63c0.29-0.22,0.61-0.34,1.07-0.34c0.64,0,1.59,0.42,1.59,2.1v2.85h-0.86v-2.74
		c0-0.93-0.34-1.49-1.05-1.49c-0.5,0-0.89,0.37-1.04,0.8c-0.04,0.12-0.07,0.28-0.07,0.44v2.99h-0.86v-2.9
		c0-0.77-0.34-1.33-1.01-1.33c-0.55,0-0.95,0.44-1.09,0.88c-0.05,0.13-0.07,0.28-0.07,0.43v2.92h-0.86V199.05z"/>
	<path d="M79.3,196.38c0.01,0.3-0.21,0.54-0.56,0.54c-0.31,0-0.53-0.24-0.53-0.54c0-0.31,0.23-0.55,0.55-0.55
		C79.09,195.83,79.3,196.07,79.3,196.38z M78.32,202.58v-4.84h0.88v4.84H78.32z"/>
	<path d="M80.54,201.68c0.26,0.17,0.72,0.35,1.16,0.35c0.64,0,0.94-0.32,0.94-0.72c0-0.42-0.25-0.65-0.9-0.89
		c-0.87-0.31-1.28-0.79-1.28-1.37c0-0.78,0.63-1.42,1.67-1.42c0.49,0,0.92,0.14,1.19,0.3l-0.22,0.64c-0.19-0.12-0.54-0.28-0.99-0.28
		c-0.52,0-0.81,0.3-0.81,0.66c0,0.4,0.29,0.58,0.92,0.82c0.84,0.32,1.27,0.74,1.27,1.46c0,0.85-0.66,1.45-1.81,1.45
		c-0.53,0-1.02-0.13-1.36-0.33L80.54,201.68z"/>
	<path d="M86.62,201.68c0.26,0.17,0.72,0.35,1.16,0.35c0.64,0,0.94-0.32,0.94-0.72c0-0.42-0.25-0.65-0.9-0.89
		c-0.87-0.31-1.28-0.79-1.28-1.37c0-0.78,0.63-1.42,1.67-1.42c0.49,0,0.92,0.14,1.19,0.3l-0.22,0.64c-0.19-0.12-0.54-0.28-0.99-0.28
		c-0.52,0-0.81,0.3-0.81,0.66c0,0.4,0.29,0.58,0.92,0.82c0.84,0.32,1.27,0.74,1.27,1.46c0,0.85-0.66,1.45-1.81,1.45
		c-0.53,0-1.02-0.13-1.36-0.33L86.62,201.68z"/>
	<path d="M91.68,196.38c0.01,0.3-0.21,0.54-0.56,0.54c-0.31,0-0.53-0.24-0.53-0.54c0-0.31,0.23-0.55,0.55-0.55
		C91.47,195.83,91.68,196.07,91.68,196.38z M90.7,202.58v-4.84h0.88v4.84H90.7z"/>
	<path d="M93.04,199.05c0-0.5-0.01-0.91-0.04-1.31h0.77l0.04,0.78h0.03c0.27-0.46,0.72-0.89,1.52-0.89c0.66,0,1.16,0.4,1.37,0.97
		h0.02c0.15-0.27,0.34-0.48,0.54-0.63c0.29-0.22,0.61-0.34,1.07-0.34c0.64,0,1.59,0.42,1.59,2.1v2.85h-0.86v-2.74
		c0-0.93-0.34-1.49-1.05-1.49c-0.5,0-0.89,0.37-1.04,0.8c-0.04,0.12-0.07,0.28-0.07,0.44v2.99h-0.86v-2.9
		c0-0.77-0.34-1.33-1.01-1.33c-0.55,0-0.95,0.44-1.09,0.88c-0.05,0.13-0.07,0.28-0.07,0.43v2.92h-0.86V199.05z"/>
	<path d="M101.38,199.32c0-0.62-0.02-1.12-0.04-1.58h0.79l0.04,0.83h0.02c0.36-0.59,0.93-0.94,1.72-0.94c1.17,0,2.05,0.99,2.05,2.46
		c0,1.74-1.06,2.6-2.2,2.6c-0.64,0-1.2-0.28-1.49-0.76h-0.02v2.63h-0.87V199.32z M102.25,200.61c0,0.13,0.02,0.25,0.04,0.36
		c0.16,0.61,0.69,1.03,1.32,1.03c0.93,0,1.47-0.76,1.47-1.87c0-0.97-0.51-1.8-1.44-1.8c-0.6,0-1.16,0.43-1.33,1.09
		c-0.03,0.11-0.06,0.24-0.06,0.36V200.61z"/>
	<path d="M107.07,195.48h0.88v7.1h-0.88V195.48z"/>
	<path d="M109.75,197.74l1.06,2.86c0.11,0.32,0.23,0.7,0.31,0.99h0.02c0.09-0.29,0.19-0.66,0.31-1.01l0.96-2.84h0.93l-1.32,3.45
		c-0.63,1.66-1.06,2.51-1.66,3.03c-0.43,0.38-0.86,0.53-1.08,0.57l-0.22-0.74c0.22-0.07,0.51-0.21,0.77-0.43
		c0.24-0.19,0.54-0.53,0.74-0.98c0.04-0.09,0.07-0.16,0.07-0.21s-0.02-0.12-0.06-0.23l-1.79-4.46H109.75z"/>
	<path d="M120.44,195.48v5.85c0,0.43,0.01,0.92,0.04,1.25h-0.79l-0.04-0.84h-0.02c-0.27,0.54-0.86,0.95-1.65,0.95
		c-1.17,0-2.07-0.99-2.07-2.46c-0.01-1.61,0.99-2.6,2.17-2.6c0.74,0,1.24,0.35,1.46,0.74h0.02v-2.89H120.44z M119.56,199.71
		c0-0.11-0.01-0.26-0.04-0.37c-0.13-0.56-0.61-1.02-1.27-1.02c-0.91,0-1.45,0.8-1.45,1.87c0,0.98,0.48,1.79,1.43,1.79
		c0.59,0,1.13-0.39,1.29-1.05c0.03-0.12,0.04-0.24,0.04-0.38V199.71z"/>
	<path d="M125.95,201.26c0,0.5,0.01,0.94,0.04,1.32h-0.78l-0.05-0.79h-0.02c-0.23,0.39-0.74,0.9-1.6,0.9
		c-0.76,0-1.67-0.42-1.67-2.12v-2.83h0.88v2.68c0,0.92,0.28,1.54,1.08,1.54c0.59,0,1-0.41,1.16-0.8c0.05-0.13,0.08-0.29,0.08-0.45
		v-2.97h0.88V201.26z"/>
	<path d="M127.41,199.05c0-0.5-0.01-0.91-0.04-1.31h0.77l0.04,0.78h0.03c0.27-0.46,0.72-0.89,1.52-0.89c0.66,0,1.16,0.4,1.37,0.97
		h0.02c0.15-0.27,0.34-0.48,0.54-0.63c0.29-0.22,0.61-0.34,1.07-0.34c0.64,0,1.59,0.42,1.59,2.1v2.85h-0.86v-2.74
		c0-0.93-0.34-1.49-1.05-1.49c-0.5,0-0.89,0.37-1.04,0.8c-0.04,0.12-0.07,0.28-0.07,0.44v2.99h-0.86v-2.9
		c0-0.77-0.34-1.33-1.01-1.33c-0.55,0-0.95,0.44-1.09,0.88c-0.05,0.13-0.07,0.28-0.07,0.43v2.92h-0.86V199.05z"/>
	<path d="M135.75,199.05c0-0.5-0.01-0.91-0.04-1.31h0.77l0.04,0.78h0.03c0.27-0.46,0.72-0.89,1.52-0.89c0.66,0,1.16,0.4,1.37,0.97
		h0.02c0.15-0.27,0.34-0.48,0.54-0.63c0.29-0.22,0.61-0.34,1.07-0.34c0.64,0,1.59,0.42,1.59,2.1v2.85h-0.86v-2.74
		c0-0.93-0.34-1.49-1.05-1.49c-0.5,0-0.89,0.37-1.04,0.8c-0.04,0.12-0.07,0.28-0.07,0.44v2.99h-0.86v-2.9
		c0-0.77-0.34-1.33-1.01-1.33c-0.55,0-0.95,0.44-1.09,0.88c-0.05,0.13-0.07,0.28-0.07,0.43v2.92h-0.86V199.05z"/>
	<path d="M144.28,197.74l1.06,2.86c0.11,0.32,0.23,0.7,0.31,0.99h0.02c0.09-0.29,0.19-0.66,0.31-1.01l0.96-2.84h0.93l-1.32,3.45
		c-0.63,1.66-1.06,2.51-1.66,3.03c-0.43,0.38-0.86,0.53-1.08,0.57l-0.22-0.74c0.22-0.07,0.51-0.21,0.77-0.43
		c0.24-0.19,0.54-0.53,0.74-0.98c0.04-0.09,0.07-0.16,0.07-0.21s-0.02-0.12-0.06-0.23l-1.79-4.46H144.28z"/>
	<path d="M151.85,196.35v1.39h1.26v0.67h-1.26v2.61c0,0.6,0.17,0.94,0.66,0.94c0.23,0,0.4-0.03,0.51-0.06l0.04,0.66
		c-0.17,0.07-0.44,0.12-0.78,0.12c-0.41,0-0.74-0.13-0.95-0.37c-0.25-0.26-0.34-0.69-0.34-1.26v-2.64h-0.75v-0.67h0.75v-1.16
		L151.85,196.35z"/>
	<path d="M154.53,200.32c0.02,1.19,0.78,1.68,1.66,1.68c0.63,0,1.01-0.11,1.34-0.25l0.15,0.63c-0.31,0.14-0.84,0.3-1.61,0.3
		c-1.49,0-2.38-0.98-2.38-2.44c0-1.46,0.86-2.61,2.27-2.61c1.58,0,2,1.39,2,2.28c0,0.18-0.02,0.32-0.03,0.41H154.53z M157.11,199.69
		c0.01-0.56-0.23-1.43-1.22-1.43c-0.89,0-1.28,0.82-1.35,1.43H157.11z"/>
	<path d="M159.43,197.74l0.69,1.04c0.18,0.27,0.33,0.52,0.49,0.79h0.03c0.16-0.29,0.32-0.54,0.48-0.8l0.68-1.03h0.95l-1.65,2.34
		l1.7,2.5h-1l-0.71-1.09c-0.19-0.28-0.35-0.55-0.52-0.84h-0.02c-0.16,0.29-0.33,0.55-0.51,0.84l-0.7,1.09h-0.97l1.72-2.47
		l-1.64-2.37H159.43z"/>
	<path d="M164.84,196.35v1.39h1.26v0.67h-1.26v2.61c0,0.6,0.17,0.94,0.66,0.94c0.23,0,0.4-0.03,0.51-0.06l0.04,0.66
		c-0.17,0.07-0.44,0.12-0.78,0.12c-0.41,0-0.74-0.13-0.95-0.37c-0.25-0.26-0.34-0.69-0.34-1.26v-2.64h-0.75v-0.67h0.75v-1.16
		L164.84,196.35z"/>
	<path d="M173.59,200.12c0,1.79-1.24,2.57-2.41,2.57c-1.31,0-2.32-0.96-2.32-2.49c0-1.62,1.06-2.57,2.4-2.57
		C172.65,197.63,173.59,198.64,173.59,200.12z M169.75,200.17c0,1.06,0.61,1.86,1.47,1.86c0.84,0,1.47-0.79,1.47-1.88
		c0-0.82-0.41-1.86-1.45-1.86C170.2,198.29,169.75,199.25,169.75,200.17z"/>
	<path d="M174.79,202.58v-4.17h-0.68v-0.67h0.68v-0.23c0-0.68,0.15-1.3,0.56-1.69c0.33-0.32,0.77-0.45,1.18-0.45
		c0.31,0,0.58,0.07,0.75,0.14l-0.12,0.68c-0.13-0.06-0.31-0.11-0.56-0.11c-0.75,0-0.94,0.66-0.94,1.4v0.26h1.17v0.67h-1.17v4.17
		H174.79z"/>
	<path d="M180.8,196.35v1.39h1.26v0.67h-1.26v2.61c0,0.6,0.17,0.94,0.66,0.94c0.23,0,0.4-0.03,0.51-0.06l0.04,0.66
		c-0.17,0.07-0.44,0.12-0.78,0.12c-0.41,0-0.74-0.13-0.95-0.37c-0.25-0.26-0.34-0.69-0.34-1.26v-2.64h-0.75v-0.67h0.75v-1.16
		L180.8,196.35z"/>
	<path d="M183.05,195.48h0.88v3.02h0.02c0.14-0.25,0.36-0.47,0.63-0.62c0.26-0.15,0.57-0.25,0.9-0.25c0.65,0,1.69,0.4,1.69,2.07
		v2.88h-0.88v-2.78c0-0.78-0.29-1.44-1.12-1.44c-0.57,0-1.02,0.4-1.18,0.88c-0.05,0.12-0.06,0.25-0.06,0.42v2.92h-0.88V195.48z"/>
	<path d="M189.09,200.32c0.02,1.19,0.78,1.68,1.66,1.68c0.63,0,1.01-0.11,1.34-0.25l0.15,0.63c-0.31,0.14-0.84,0.3-1.61,0.3
		c-1.49,0-2.38-0.98-2.38-2.44c0-1.46,0.86-2.61,2.27-2.61c1.58,0,2,1.39,2,2.28c0,0.18-0.02,0.32-0.03,0.41H189.09z M191.67,199.69
		c0.01-0.56-0.23-1.43-1.22-1.43c-0.89,0-1.28,0.82-1.35,1.43H191.67z"/>
	<path d="M195.73,199.32c0-0.62-0.02-1.12-0.04-1.58h0.79l0.04,0.83h0.02c0.36-0.59,0.93-0.94,1.72-0.94c1.17,0,2.05,0.99,2.05,2.46
		c0,1.74-1.06,2.6-2.2,2.6c-0.64,0-1.2-0.28-1.49-0.76h-0.02v2.63h-0.87V199.32z M196.6,200.61c0,0.13,0.02,0.25,0.04,0.36
		c0.16,0.61,0.69,1.03,1.32,1.03c0.93,0,1.47-0.76,1.47-1.87c0-0.97-0.51-1.8-1.44-1.8c-0.6,0-1.16,0.43-1.33,1.09
		c-0.03,0.11-0.06,0.24-0.06,0.36V200.61z"/>
	<path d="M201.42,199.25c0-0.57-0.01-1.06-0.04-1.51h0.77l0.03,0.95h0.04c0.22-0.65,0.75-1.06,1.34-1.06c0.1,0,0.17,0.01,0.25,0.03
		v0.83c-0.09-0.02-0.18-0.03-0.3-0.03c-0.62,0-1.06,0.47-1.18,1.13c-0.02,0.12-0.04,0.26-0.04,0.41v2.58h-0.87V199.25z"/>
	<path d="M205.71,196.38c0.01,0.3-0.21,0.54-0.56,0.54c-0.31,0-0.53-0.24-0.53-0.54c0-0.31,0.23-0.55,0.55-0.55
		C205.5,195.83,205.71,196.07,205.71,196.38z M204.73,202.58v-4.84h0.88v4.84H204.73z"/>
	<path d="M207.07,199.05c0-0.5-0.01-0.91-0.04-1.31h0.78l0.05,0.8h0.02c0.24-0.46,0.8-0.91,1.6-0.91c0.67,0,1.71,0.4,1.71,2.06v2.89
		h-0.88v-2.79c0-0.78-0.29-1.43-1.12-1.43c-0.58,0-1.03,0.41-1.18,0.9c-0.04,0.11-0.06,0.26-0.06,0.41v2.91h-0.88V199.05z"/>
	<path d="M213.64,196.35v1.39h1.26v0.67h-1.26v2.61c0,0.6,0.17,0.94,0.66,0.94c0.23,0,0.4-0.03,0.51-0.06l0.04,0.66
		c-0.17,0.07-0.44,0.12-0.78,0.12c-0.41,0-0.74-0.13-0.95-0.37c-0.25-0.26-0.34-0.69-0.34-1.26v-2.64h-0.75v-0.67h0.75v-1.16
		L213.64,196.35z"/>
	<path d="M216.87,196.38c0.01,0.3-0.21,0.54-0.56,0.54c-0.31,0-0.53-0.24-0.53-0.54c0-0.31,0.23-0.55,0.55-0.55
		C216.66,195.83,216.87,196.07,216.87,196.38z M215.89,202.58v-4.84h0.88v4.84H215.89z"/>
	<path d="M218.23,199.05c0-0.5-0.01-0.91-0.04-1.31h0.78l0.05,0.8h0.02c0.24-0.46,0.8-0.91,1.6-0.91c0.67,0,1.71,0.4,1.71,2.06v2.89
		h-0.88v-2.79c0-0.78-0.29-1.43-1.12-1.43c-0.58,0-1.03,0.41-1.18,0.9c-0.04,0.11-0.06,0.26-0.06,0.41v2.91h-0.88V199.05z"/>
	<path d="M227.95,197.74c-0.02,0.35-0.04,0.74-0.04,1.33v2.81c0,1.11-0.22,1.79-0.69,2.21c-0.47,0.44-1.15,0.58-1.76,0.58
		c-0.58,0-1.22-0.14-1.61-0.4l0.22-0.67c0.32,0.2,0.82,0.38,1.42,0.38c0.9,0,1.56-0.47,1.56-1.69v-0.54h-0.02
		c-0.27,0.45-0.79,0.81-1.54,0.81c-1.2,0-2.06-1.02-2.06-2.36c0-1.64,1.07-2.57,2.18-2.57c0.84,0,1.3,0.44,1.51,0.84h0.02l0.04-0.73
		H227.95z M227.04,199.65c0-0.15-0.01-0.28-0.05-0.4c-0.16-0.51-0.59-0.93-1.23-0.93c-0.84,0-1.44,0.71-1.44,1.83
		c0,0.95,0.48,1.74,1.43,1.74c0.54,0,1.03-0.34,1.22-0.9c0.05-0.15,0.07-0.32,0.07-0.47V199.65z"/>
	<path d="M19.62,214.58l-0.07-0.61h-0.03c-0.27,0.38-0.79,0.72-1.48,0.72c-0.98,0-1.48-0.69-1.48-1.39c0-1.17,1.04-1.81,2.91-1.8
		v-0.1c0-0.4-0.11-1.12-1.1-1.12c-0.45,0-0.92,0.14-1.26,0.36l-0.2-0.58c0.4-0.26,0.98-0.43,1.59-0.43c1.48,0,1.84,1.01,1.84,1.98
		v1.81c0,0.42,0.02,0.83,0.08,1.16H19.62z M19.49,212.11c-0.96-0.02-2.05,0.15-2.05,1.09c0,0.57,0.38,0.84,0.83,0.84
		c0.63,0,1.03-0.4,1.17-0.81c0.03-0.09,0.05-0.19,0.05-0.28V212.11z"/>
	<path d="M21.76,211.05c0-0.5-0.01-0.91-0.04-1.31h0.78l0.05,0.8h0.02c0.24-0.46,0.8-0.91,1.6-0.91c0.67,0,1.71,0.4,1.71,2.06v2.89
		H25v-2.79c0-0.78-0.29-1.43-1.12-1.43c-0.58,0-1.03,0.41-1.18,0.9c-0.04,0.11-0.06,0.26-0.06,0.41v2.91h-0.88V211.05z"/>
	<path d="M31.49,207.48v5.85c0,0.43,0.01,0.92,0.04,1.25h-0.79l-0.04-0.84h-0.02c-0.27,0.54-0.86,0.95-1.65,0.95
		c-1.17,0-2.07-0.99-2.07-2.46c-0.01-1.61,0.99-2.6,2.17-2.6c0.74,0,1.24,0.35,1.46,0.74h0.02v-2.89H31.49z M30.61,211.71
		c0-0.11-0.01-0.26-0.04-0.37c-0.13-0.56-0.61-1.02-1.27-1.02c-0.91,0-1.45,0.8-1.45,1.87c0,0.98,0.48,1.79,1.43,1.79
		c0.59,0,1.13-0.39,1.29-1.05c0.03-0.12,0.04-0.24,0.04-0.38V211.71z"/>
	<path d="M36.13,208.35v1.39h1.26v0.67h-1.26v2.61c0,0.6,0.17,0.94,0.66,0.94c0.23,0,0.4-0.03,0.51-0.06l0.04,0.66
		c-0.17,0.07-0.44,0.12-0.78,0.12c-0.41,0-0.74-0.13-0.95-0.37c-0.25-0.26-0.34-0.69-0.34-1.26v-2.64h-0.75v-0.67h0.75v-1.16
		L36.13,208.35z"/>
	<path d="M38.79,209.74l1.06,2.86c0.11,0.32,0.23,0.7,0.31,0.99h0.02c0.09-0.29,0.19-0.66,0.31-1.01l0.96-2.84h0.93l-1.32,3.45
		c-0.63,1.66-1.06,2.51-1.66,3.03c-0.43,0.38-0.86,0.53-1.08,0.57l-0.22-0.74c0.22-0.07,0.51-0.21,0.77-0.43
		c0.24-0.19,0.54-0.53,0.74-0.98c0.04-0.09,0.07-0.16,0.07-0.21s-0.02-0.12-0.06-0.23l-1.79-4.46H38.79z"/>
	<path d="M43.18,211.32c0-0.62-0.02-1.12-0.04-1.58h0.79l0.04,0.83h0.02c0.36-0.59,0.93-0.94,1.72-0.94c1.17,0,2.05,0.99,2.05,2.46
		c0,1.74-1.06,2.6-2.2,2.6c-0.64,0-1.2-0.28-1.49-0.76h-0.02v2.63h-0.87V211.32z M44.05,212.61c0,0.13,0.02,0.25,0.04,0.36
		c0.16,0.61,0.69,1.03,1.32,1.03c0.93,0,1.47-0.76,1.47-1.87c0-0.97-0.51-1.8-1.44-1.8c-0.6,0-1.16,0.43-1.33,1.09
		c-0.03,0.11-0.06,0.24-0.06,0.36V212.61z"/>
	<path d="M49.36,212.32c0.02,1.19,0.78,1.68,1.66,1.68c0.63,0,1.01-0.11,1.34-0.25l0.15,0.63c-0.31,0.14-0.84,0.3-1.61,0.3
		c-1.49,0-2.38-0.98-2.38-2.44c0-1.46,0.86-2.61,2.27-2.61c1.58,0,2,1.39,2,2.28c0,0.18-0.02,0.32-0.03,0.41H49.36z M51.94,211.69
		c0.01-0.56-0.23-1.43-1.22-1.43c-0.89,0-1.28,0.82-1.35,1.43H51.94z"/>
	<path d="M53.76,213.68c0.26,0.17,0.72,0.35,1.16,0.35c0.64,0,0.94-0.32,0.94-0.72c0-0.42-0.25-0.65-0.9-0.89
		c-0.87-0.31-1.28-0.79-1.28-1.37c0-0.78,0.63-1.42,1.67-1.42c0.49,0,0.92,0.14,1.19,0.3l-0.22,0.64c-0.19-0.12-0.54-0.28-0.99-0.28
		c-0.52,0-0.81,0.3-0.81,0.66c0,0.4,0.29,0.58,0.92,0.82c0.84,0.32,1.27,0.74,1.27,1.46c0,0.85-0.66,1.45-1.81,1.45
		c-0.53,0-1.02-0.13-1.36-0.33L53.76,213.68z"/>
	<path d="M58.33,212.32c0.02,1.19,0.78,1.68,1.66,1.68c0.63,0,1.01-0.11,1.34-0.25l0.15,0.63c-0.31,0.14-0.84,0.3-1.61,0.3
		c-1.49,0-2.38-0.98-2.38-2.44c0-1.46,0.86-2.61,2.27-2.61c1.58,0,2,1.39,2,2.28c0,0.18-0.02,0.32-0.03,0.41H58.33z M60.91,211.69
		c0.01-0.56-0.23-1.43-1.22-1.43c-0.89,0-1.28,0.82-1.35,1.43H60.91z"/>
	<path d="M63.91,208.35v1.39h1.26v0.67h-1.26v2.61c0,0.6,0.17,0.94,0.66,0.94c0.23,0,0.4-0.03,0.51-0.06l0.04,0.66
		c-0.17,0.07-0.44,0.12-0.78,0.12c-0.41,0-0.74-0.13-0.95-0.37c-0.25-0.26-0.34-0.69-0.34-1.26v-2.64H62.3v-0.67h0.75v-1.16
		L63.91,208.35z"/>
	<path d="M67.22,208.35v1.39h1.26v0.67h-1.26v2.61c0,0.6,0.17,0.94,0.66,0.94c0.23,0,0.4-0.03,0.51-0.06l0.04,0.66
		c-0.17,0.07-0.44,0.12-0.78,0.12c-0.41,0-0.74-0.13-0.95-0.37c-0.25-0.26-0.34-0.69-0.34-1.26v-2.64h-0.75v-0.67h0.75v-1.16
		L67.22,208.35z"/>
	<path d="M70.45,208.38c0.01,0.3-0.21,0.54-0.56,0.54c-0.31,0-0.53-0.24-0.53-0.54c0-0.31,0.23-0.55,0.55-0.55
		C70.24,207.83,70.45,208.07,70.45,208.38z M69.47,214.58v-4.84h0.88v4.84H69.47z"/>
	<path d="M71.81,211.05c0-0.5-0.01-0.91-0.04-1.31h0.78l0.05,0.8h0.02c0.24-0.46,0.8-0.91,1.6-0.91c0.67,0,1.71,0.4,1.71,2.06v2.89
		h-0.88v-2.79c0-0.78-0.29-1.43-1.12-1.43c-0.58,0-1.03,0.41-1.18,0.9c-0.04,0.11-0.06,0.26-0.06,0.41v2.91h-0.88V211.05z"/>
	<path d="M81.53,209.74c-0.02,0.35-0.04,0.74-0.04,1.33v2.81c0,1.11-0.22,1.79-0.69,2.21c-0.47,0.44-1.15,0.58-1.76,0.58
		c-0.58,0-1.22-0.14-1.61-0.4l0.22-0.67c0.32,0.2,0.82,0.38,1.42,0.38c0.9,0,1.56-0.47,1.56-1.69v-0.54h-0.02
		c-0.27,0.45-0.79,0.81-1.54,0.81c-1.2,0-2.06-1.02-2.06-2.36c0-1.64,1.07-2.57,2.18-2.57c0.84,0,1.3,0.44,1.51,0.84h0.02l0.04-0.73
		H81.53z M80.62,211.65c0-0.15-0.01-0.28-0.05-0.4c-0.16-0.51-0.59-0.93-1.23-0.93c-0.84,0-1.44,0.71-1.44,1.83
		c0,0.95,0.48,1.74,1.43,1.74c0.54,0,1.03-0.34,1.22-0.9c0.05-0.15,0.07-0.32,0.07-0.47V211.65z"/>
	<path d="M86.05,208.38c0.01,0.3-0.21,0.54-0.56,0.54c-0.31,0-0.53-0.24-0.53-0.54c0-0.31,0.23-0.55,0.55-0.55
		C85.84,207.83,86.05,208.07,86.05,208.38z M85.07,214.58v-4.84h0.88v4.84H85.07z"/>
	<path d="M87.41,211.05c0-0.5-0.01-0.91-0.04-1.31h0.78l0.05,0.8h0.02c0.24-0.46,0.8-0.91,1.6-0.91c0.67,0,1.71,0.4,1.71,2.06v2.89
		h-0.88v-2.79c0-0.78-0.29-1.43-1.12-1.43c-0.58,0-1.03,0.41-1.18,0.9c-0.04,0.11-0.06,0.26-0.06,0.41v2.91h-0.88V211.05z"/>
	<path d="M97.14,207.48v5.85c0,0.43,0.01,0.92,0.04,1.25h-0.79l-0.04-0.84h-0.02c-0.27,0.54-0.86,0.95-1.65,0.95
		c-1.17,0-2.07-0.99-2.07-2.46c-0.01-1.61,0.99-2.6,2.17-2.6c0.74,0,1.24,0.35,1.46,0.74h0.02v-2.89H97.14z M96.26,211.71
		c0-0.11-0.01-0.26-0.04-0.37c-0.13-0.56-0.61-1.02-1.27-1.02c-0.91,0-1.45,0.8-1.45,1.87c0,0.98,0.48,1.79,1.43,1.79
		c0.59,0,1.13-0.39,1.29-1.05c0.03-0.12,0.04-0.24,0.04-0.38V211.71z"/>
	<path d="M102.65,213.26c0,0.5,0.01,0.94,0.04,1.32h-0.78l-0.05-0.79h-0.02c-0.23,0.39-0.74,0.9-1.6,0.9
		c-0.76,0-1.67-0.42-1.67-2.12v-2.83h0.88v2.68c0,0.92,0.28,1.54,1.08,1.54c0.59,0,1-0.41,1.16-0.8c0.05-0.13,0.08-0.29,0.08-0.45
		v-2.97h0.88V213.26z"/>
	<path d="M103.99,213.68c0.26,0.17,0.72,0.35,1.16,0.35c0.64,0,0.94-0.32,0.94-0.72c0-0.42-0.25-0.65-0.9-0.89
		c-0.87-0.31-1.28-0.79-1.28-1.37c0-0.78,0.63-1.42,1.67-1.42c0.49,0,0.92,0.14,1.19,0.3l-0.22,0.64c-0.19-0.12-0.54-0.28-0.99-0.28
		c-0.52,0-0.81,0.3-0.81,0.66c0,0.4,0.29,0.58,0.92,0.82c0.84,0.32,1.27,0.74,1.27,1.46c0,0.85-0.66,1.45-1.81,1.45
		c-0.53,0-1.02-0.13-1.36-0.33L103.99,213.68z"/>
	<path d="M109.13,208.35v1.39h1.26v0.67h-1.26v2.61c0,0.6,0.17,0.94,0.66,0.94c0.23,0,0.4-0.03,0.51-0.06l0.04,0.66
		c-0.17,0.07-0.44,0.12-0.78,0.12c-0.41,0-0.74-0.13-0.95-0.37c-0.25-0.26-0.34-0.69-0.34-1.26v-2.64h-0.75v-0.67h0.75v-1.16
		L109.13,208.35z"/>
	<path d="M111.38,211.25c0-0.57-0.01-1.06-0.04-1.51h0.77l0.03,0.95h0.04c0.22-0.65,0.75-1.06,1.34-1.06c0.1,0,0.17,0.01,0.25,0.03
		v0.83c-0.09-0.02-0.18-0.03-0.3-0.03c-0.62,0-1.06,0.47-1.18,1.13c-0.02,0.12-0.04,0.26-0.04,0.41v2.58h-0.87V211.25z"/>
	<path d="M115.22,209.74l1.06,2.86c0.11,0.32,0.23,0.7,0.31,0.99h0.02c0.09-0.29,0.19-0.66,0.31-1.01l0.96-2.84h0.93l-1.32,3.45
		c-0.63,1.66-1.06,2.51-1.66,3.03c-0.43,0.38-0.86,0.53-1.08,0.57l-0.22-0.74c0.22-0.07,0.51-0.21,0.77-0.43
		c0.24-0.19,0.54-0.53,0.74-0.98c0.04-0.09,0.07-0.16,0.07-0.21s-0.02-0.12-0.06-0.23l-1.79-4.46H115.22z"/>
	<path d="M119.01,214.06c0-0.37,0.25-0.63,0.6-0.63c0.35,0,0.59,0.26,0.59,0.63c0,0.36-0.23,0.63-0.6,0.63
		C119.25,214.69,119.01,214.42,119.01,214.06z"/>
	<path d="M123.44,207.84h0.87v6.01h2.88v0.73h-3.75V207.84z"/>
	<path d="M132.37,212.12c0,1.79-1.24,2.57-2.41,2.57c-1.31,0-2.32-0.96-2.32-2.49c0-1.62,1.06-2.57,2.4-2.57
		C131.43,209.63,132.37,210.64,132.37,212.12z M128.53,212.17c0,1.06,0.61,1.86,1.47,1.86c0.84,0,1.47-0.79,1.47-1.88
		c0-0.82-0.41-1.86-1.45-1.86C128.98,210.29,128.53,211.25,128.53,212.17z"/>
	<path d="M133.48,211.25c0-0.57-0.01-1.06-0.04-1.51h0.77l0.03,0.95h0.04c0.22-0.65,0.75-1.06,1.34-1.06c0.1,0,0.17,0.01,0.25,0.03
		v0.83c-0.09-0.02-0.18-0.03-0.3-0.03c-0.62,0-1.06,0.47-1.18,1.13c-0.02,0.12-0.04,0.26-0.04,0.41v2.58h-0.87V211.25z"/>
	<path d="M137.14,212.32c0.02,1.19,0.78,1.68,1.66,1.68c0.63,0,1.01-0.11,1.34-0.25l0.15,0.63c-0.31,0.14-0.84,0.3-1.61,0.3
		c-1.49,0-2.38-0.98-2.38-2.44c0-1.46,0.86-2.61,2.27-2.61c1.58,0,2,1.39,2,2.28c0,0.18-0.02,0.32-0.03,0.41H137.14z M139.72,211.69
		c0.01-0.56-0.23-1.43-1.22-1.43c-0.89,0-1.28,0.82-1.35,1.43H139.72z"/>
	<path d="M141.66,211.05c0-0.5-0.01-0.91-0.04-1.31h0.77l0.04,0.78h0.03c0.27-0.46,0.72-0.89,1.52-0.89c0.66,0,1.16,0.4,1.37,0.97
		h0.02c0.15-0.27,0.34-0.48,0.54-0.63c0.29-0.22,0.61-0.34,1.07-0.34c0.64,0,1.59,0.42,1.59,2.1v2.85h-0.86v-2.74
		c0-0.93-0.34-1.49-1.05-1.49c-0.5,0-0.89,0.37-1.04,0.8c-0.04,0.12-0.07,0.28-0.07,0.44v2.99h-0.86v-2.9
		c0-0.77-0.34-1.33-1.01-1.33c-0.55,0-0.95,0.44-1.09,0.88c-0.05,0.13-0.07,0.28-0.07,0.43v2.92h-0.86V211.05z"/>
	<path d="M153.02,207.84v6.74h-0.87v-6.74H153.02z"/>
	<path d="M154.61,211.32c0-0.62-0.02-1.12-0.04-1.58h0.79l0.04,0.83h0.02c0.36-0.59,0.93-0.94,1.72-0.94c1.17,0,2.05,0.99,2.05,2.46
		c0,1.74-1.06,2.6-2.2,2.6c-0.64,0-1.2-0.28-1.49-0.76h-0.02v2.63h-0.87V211.32z M155.48,212.61c0,0.13,0.02,0.25,0.04,0.36
		c0.16,0.61,0.69,1.03,1.32,1.03c0.93,0,1.47-0.76,1.47-1.87c0-0.97-0.51-1.8-1.44-1.8c-0.6,0-1.16,0.43-1.33,1.09
		c-0.03,0.11-0.06,0.24-0.06,0.36V212.61z"/>
	<path d="M160.18,213.68c0.26,0.17,0.72,0.35,1.16,0.35c0.64,0,0.94-0.32,0.94-0.72c0-0.42-0.25-0.65-0.9-0.89
		c-0.87-0.31-1.28-0.79-1.28-1.37c0-0.78,0.63-1.42,1.67-1.42c0.49,0,0.92,0.14,1.19,0.3l-0.22,0.64c-0.19-0.12-0.54-0.28-0.99-0.28
		c-0.52,0-0.81,0.3-0.81,0.66c0,0.4,0.29,0.58,0.92,0.82c0.84,0.32,1.27,0.74,1.27,1.46c0,0.85-0.66,1.45-1.81,1.45
		c-0.53,0-1.02-0.13-1.36-0.33L160.18,213.68z"/>
	<path d="M168.31,213.26c0,0.5,0.01,0.94,0.04,1.32h-0.78l-0.05-0.79h-0.02c-0.23,0.39-0.74,0.9-1.6,0.9
		c-0.76,0-1.67-0.42-1.67-2.12v-2.83h0.88v2.68c0,0.92,0.28,1.54,1.08,1.54c0.59,0,1-0.41,1.16-0.8c0.05-0.13,0.08-0.29,0.08-0.45
		v-2.97h0.88V213.26z"/>
	<path d="M169.77,211.05c0-0.5-0.01-0.91-0.04-1.31h0.77l0.04,0.78h0.03c0.27-0.46,0.72-0.89,1.52-0.89c0.66,0,1.16,0.4,1.37,0.97
		h0.02c0.15-0.27,0.34-0.48,0.54-0.63c0.29-0.22,0.61-0.34,1.07-0.34c0.64,0,1.59,0.42,1.59,2.1v2.85h-0.86v-2.74
		c0-0.93-0.34-1.49-1.05-1.49c-0.5,0-0.89,0.37-1.04,0.8c-0.04,0.12-0.07,0.28-0.07,0.44v2.99h-0.86v-2.9
		c0-0.77-0.34-1.33-1.01-1.33c-0.55,0-0.95,0.44-1.09,0.88c-0.05,0.13-0.07,0.28-0.07,0.43v2.92h-0.86V211.05z"/>
	<path d="M180.23,207.48h0.88v3.02h0.02c0.14-0.25,0.36-0.47,0.63-0.62c0.26-0.15,0.57-0.25,0.9-0.25c0.65,0,1.69,0.4,1.69,2.07
		v2.88h-0.88v-2.78c0-0.78-0.29-1.44-1.12-1.44c-0.57,0-1.02,0.4-1.18,0.88c-0.05,0.12-0.06,0.25-0.06,0.42v2.92h-0.88V207.48z"/>
	<path d="M188.46,214.58l-0.07-0.61h-0.03c-0.27,0.38-0.79,0.72-1.48,0.72c-0.98,0-1.48-0.69-1.48-1.39c0-1.17,1.04-1.81,2.91-1.8
		v-0.1c0-0.4-0.11-1.12-1.1-1.12c-0.45,0-0.92,0.14-1.26,0.36l-0.2-0.58c0.4-0.26,0.98-0.43,1.59-0.43c1.48,0,1.84,1.01,1.84,1.98
		v1.81c0,0.42,0.02,0.83,0.08,1.16H188.46z M188.33,212.11c-0.96-0.02-2.05,0.15-2.05,1.09c0,0.57,0.38,0.84,0.83,0.84
		c0.63,0,1.03-0.4,1.17-0.81c0.03-0.09,0.05-0.19,0.05-0.28V212.11z"/>
	<path d="M190.48,213.68c0.26,0.17,0.72,0.35,1.16,0.35c0.64,0,0.94-0.32,0.94-0.72c0-0.42-0.25-0.65-0.9-0.89
		c-0.87-0.31-1.28-0.79-1.28-1.37c0-0.78,0.63-1.42,1.67-1.42c0.49,0,0.92,0.14,1.19,0.3l-0.22,0.64c-0.19-0.12-0.54-0.28-0.99-0.28
		c-0.52,0-0.81,0.3-0.81,0.66c0,0.4,0.29,0.58,0.92,0.82c0.84,0.32,1.27,0.74,1.27,1.46c0,0.85-0.66,1.45-1.81,1.45
		c-0.53,0-1.02-0.13-1.36-0.33L190.48,213.68z"/>
	<path d="M196.64,214.58c0.02-0.33,0.04-0.82,0.04-1.25v-5.85h0.87v3.04h0.02c0.31-0.54,0.87-0.89,1.65-0.89c1.2,0,2.05,1,2.04,2.47
		c0,1.73-1.09,2.59-2.17,2.59c-0.7,0-1.26-0.27-1.62-0.91h-0.03l-0.04,0.8H196.64z M197.55,212.64c0,0.11,0.02,0.22,0.04,0.32
		c0.17,0.61,0.68,1.03,1.32,1.03c0.92,0,1.47-0.75,1.47-1.86c0-0.97-0.5-1.8-1.44-1.8c-0.6,0-1.16,0.41-1.34,1.08
		c-0.02,0.1-0.05,0.22-0.05,0.36V212.64z"/>
	<path d="M202.86,212.32c0.02,1.19,0.78,1.68,1.66,1.68c0.63,0,1.01-0.11,1.34-0.25l0.15,0.63c-0.31,0.14-0.84,0.3-1.61,0.3
		c-1.49,0-2.38-0.98-2.38-2.44c0-1.46,0.86-2.61,2.27-2.61c1.58,0,2,1.39,2,2.28c0,0.18-0.02,0.32-0.03,0.41H202.86z M205.44,211.69
		c0.01-0.56-0.23-1.43-1.22-1.43c-0.89,0-1.28,0.82-1.35,1.43H205.44z"/>
	<path d="M207.87,212.32c0.02,1.19,0.78,1.68,1.66,1.68c0.63,0,1.01-0.11,1.34-0.25l0.15,0.63c-0.31,0.14-0.84,0.3-1.61,0.3
		c-1.49,0-2.38-0.98-2.38-2.44c0-1.46,0.86-2.61,2.27-2.61c1.58,0,2,1.39,2,2.28c0,0.18-0.02,0.32-0.03,0.41H207.87z M210.45,211.69
		c0.01-0.56-0.23-1.43-1.22-1.43c-0.89,0-1.28,0.82-1.35,1.43H210.45z"/>
	<path d="M212.39,211.05c0-0.5-0.01-0.91-0.04-1.31h0.78l0.05,0.8h0.02c0.24-0.46,0.8-0.91,1.6-0.91c0.67,0,1.71,0.4,1.71,2.06v2.89
		h-0.88v-2.79c0-0.78-0.29-1.43-1.12-1.43c-0.58,0-1.03,0.41-1.18,0.9c-0.04,0.11-0.06,0.26-0.06,0.41v2.91h-0.88V211.05z"/>
	<path d="M221.12,208.35v1.39h1.26v0.67h-1.26v2.61c0,0.6,0.17,0.94,0.66,0.94c0.23,0,0.4-0.03,0.51-0.06l0.04,0.66
		c-0.17,0.07-0.44,0.12-0.78,0.12c-0.41,0-0.74-0.13-0.95-0.37c-0.25-0.26-0.34-0.69-0.34-1.26v-2.64h-0.75v-0.67h0.75v-1.16
		L221.12,208.35z"/>
	<path d="M223.37,207.48h0.88v3.02h0.02c0.14-0.25,0.36-0.47,0.63-0.62c0.26-0.15,0.57-0.25,0.9-0.25c0.65,0,1.69,0.4,1.69,2.07
		v2.88h-0.88v-2.78c0-0.78-0.29-1.44-1.12-1.44c-0.57,0-1.02,0.4-1.18,0.88c-0.05,0.12-0.06,0.25-0.06,0.42v2.92h-0.88V207.48z"/>
	<path d="M229.41,212.32c0.02,1.19,0.78,1.68,1.66,1.68c0.63,0,1.01-0.11,1.34-0.25l0.15,0.63c-0.31,0.14-0.84,0.3-1.61,0.3
		c-1.49,0-2.38-0.98-2.38-2.44c0-1.46,0.86-2.61,2.27-2.61c1.58,0,2,1.39,2,2.28c0,0.18-0.02,0.32-0.03,0.41H229.41z M231.99,211.69
		c0.01-0.56-0.23-1.43-1.22-1.43c-0.89,0-1.28,0.82-1.35,1.43H231.99z"/>
	<path d="M30.48,220.38c0.01,0.3-0.21,0.54-0.56,0.54c-0.31,0-0.53-0.24-0.53-0.54c0-0.31,0.23-0.55,0.55-0.55
		C30.27,219.83,30.48,220.07,30.48,220.38z M29.5,226.58v-4.84h0.88v4.84H29.5z"/>
	<path d="M31.84,223.05c0-0.5-0.01-0.91-0.04-1.31h0.78l0.05,0.8h0.02c0.24-0.46,0.8-0.91,1.6-0.91c0.67,0,1.71,0.4,1.71,2.06v2.89
		h-0.88v-2.79c0-0.78-0.29-1.43-1.12-1.43c-0.58,0-1.03,0.41-1.18,0.9c-0.04,0.11-0.06,0.26-0.06,0.41v2.91h-0.88V223.05z"/>
	<path d="M41.57,219.48v5.85c0,0.43,0.01,0.92,0.04,1.25h-0.79l-0.04-0.84h-0.02c-0.27,0.54-0.86,0.95-1.65,0.95
		c-1.17,0-2.07-0.99-2.07-2.46c-0.01-1.61,0.99-2.6,2.17-2.6c0.74,0,1.24,0.35,1.46,0.74h0.02v-2.89H41.57z M40.69,223.71
		c0-0.11-0.01-0.26-0.04-0.37c-0.13-0.56-0.61-1.02-1.27-1.02c-0.91,0-1.45,0.8-1.45,1.87c0,0.98,0.48,1.79,1.43,1.79
		c0.59,0,1.13-0.39,1.29-1.05c0.03-0.12,0.04-0.24,0.04-0.38V223.71z"/>
	<path d="M47.08,225.26c0,0.5,0.01,0.94,0.04,1.32h-0.78l-0.05-0.79h-0.02c-0.23,0.39-0.74,0.9-1.6,0.9c-0.76,0-1.67-0.42-1.67-2.12
		v-2.83h0.88v2.68c0,0.92,0.28,1.54,1.08,1.54c0.59,0,1-0.41,1.16-0.8c0.05-0.13,0.08-0.29,0.08-0.45v-2.97h0.88V225.26z"/>
	<path d="M48.42,225.68c0.26,0.17,0.72,0.35,1.16,0.35c0.64,0,0.94-0.32,0.94-0.72c0-0.42-0.25-0.65-0.9-0.89
		c-0.87-0.31-1.28-0.79-1.28-1.37c0-0.78,0.63-1.42,1.67-1.42c0.49,0,0.92,0.14,1.19,0.3l-0.22,0.64c-0.19-0.12-0.54-0.28-0.99-0.28
		c-0.52,0-0.81,0.3-0.81,0.66c0,0.4,0.29,0.58,0.92,0.82c0.84,0.32,1.27,0.74,1.27,1.46c0,0.85-0.66,1.45-1.81,1.45
		c-0.53,0-1.02-0.13-1.36-0.33L48.42,225.68z"/>
	<path d="M53.56,220.35v1.39h1.26v0.67h-1.26v2.61c0,0.6,0.17,0.94,0.66,0.94c0.23,0,0.4-0.03,0.51-0.06l0.04,0.66
		c-0.17,0.07-0.44,0.12-0.78,0.12c-0.41,0-0.74-0.13-0.95-0.37c-0.25-0.26-0.34-0.69-0.34-1.26v-2.64h-0.75v-0.67h0.75v-1.16
		L53.56,220.35z"/>
	<path d="M55.81,223.25c0-0.57-0.01-1.06-0.04-1.51h0.77l0.03,0.95h0.04c0.22-0.65,0.75-1.06,1.34-1.06c0.1,0,0.17,0.01,0.25,0.03
		v0.83c-0.09-0.02-0.18-0.03-0.3-0.03c-0.62,0-1.06,0.47-1.18,1.13c-0.02,0.12-0.04,0.26-0.04,0.41v2.58h-0.87V223.25z"/>
	<path d="M59.65,221.74l1.06,2.86c0.11,0.32,0.23,0.7,0.31,0.99h0.02c0.09-0.29,0.19-0.66,0.31-1.01l0.96-2.84h0.93l-1.32,3.45
		c-0.63,1.66-1.06,2.51-1.66,3.03c-0.43,0.38-0.86,0.53-1.08,0.57l-0.22-0.74c0.22-0.07,0.51-0.21,0.77-0.43
		c0.24-0.19,0.54-0.53,0.74-0.98c0.04-0.09,0.07-0.16,0.07-0.21s-0.02-0.12-0.06-0.23l-1.79-4.46H59.65z"/>
	<path d="M64.69,219.73l-0.17,2.4h-0.54l-0.16-2.4H64.69z"/>
	<path d="M65.8,225.68c0.26,0.17,0.72,0.35,1.16,0.35c0.64,0,0.94-0.32,0.94-0.72c0-0.42-0.25-0.65-0.9-0.89
		c-0.87-0.31-1.28-0.79-1.28-1.37c0-0.78,0.63-1.42,1.67-1.42c0.49,0,0.92,0.14,1.19,0.3l-0.22,0.64c-0.19-0.12-0.54-0.28-0.99-0.28
		c-0.52,0-0.81,0.3-0.81,0.66c0,0.4,0.29,0.58,0.92,0.82c0.84,0.32,1.27,0.74,1.27,1.46c0,0.85-0.66,1.45-1.81,1.45
		c-0.53,0-1.02-0.13-1.36-0.33L65.8,225.68z"/>
	<path d="M71.88,225.68c0.26,0.17,0.72,0.35,1.16,0.35c0.64,0,0.94-0.32,0.94-0.72c0-0.42-0.25-0.65-0.9-0.89
		c-0.87-0.31-1.28-0.79-1.28-1.37c0-0.78,0.63-1.42,1.67-1.42c0.49,0,0.92,0.14,1.19,0.3l-0.22,0.64c-0.19-0.12-0.54-0.28-0.99-0.28
		c-0.52,0-0.81,0.3-0.81,0.66c0,0.4,0.29,0.58,0.92,0.82c0.84,0.32,1.27,0.74,1.27,1.46c0,0.85-0.66,1.45-1.81,1.45
		c-0.53,0-1.02-0.13-1.36-0.33L71.88,225.68z"/>
	<path d="M77.02,220.35v1.39h1.26v0.67h-1.26v2.61c0,0.6,0.17,0.94,0.66,0.94c0.23,0,0.4-0.03,0.51-0.06l0.04,0.66
		c-0.17,0.07-0.44,0.12-0.78,0.12c-0.41,0-0.74-0.13-0.95-0.37c-0.25-0.26-0.34-0.69-0.34-1.26v-2.64h-0.75v-0.67h0.75v-1.16
		L77.02,220.35z"/>
	<path d="M81.95,226.58l-0.07-0.61h-0.03c-0.27,0.38-0.79,0.72-1.48,0.72c-0.98,0-1.48-0.69-1.48-1.39c0-1.17,1.04-1.81,2.91-1.8
		v-0.1c0-0.4-0.11-1.12-1.1-1.12c-0.45,0-0.92,0.14-1.26,0.36l-0.2-0.58c0.4-0.26,0.98-0.43,1.59-0.43c1.48,0,1.84,1.01,1.84,1.98
		v1.81c0,0.42,0.02,0.83,0.08,1.16H81.95z M81.82,224.11c-0.96-0.02-2.05,0.15-2.05,1.09c0,0.57,0.38,0.84,0.83,0.84
		c0.63,0,1.03-0.4,1.17-0.81c0.03-0.09,0.05-0.19,0.05-0.28V224.11z"/>
	<path d="M84.09,223.05c0-0.5-0.01-0.91-0.04-1.31h0.78l0.05,0.8h0.02c0.24-0.46,0.8-0.91,1.6-0.91c0.67,0,1.71,0.4,1.71,2.06v2.89
		h-0.88v-2.79c0-0.78-0.29-1.43-1.12-1.43c-0.58,0-1.03,0.41-1.18,0.9c-0.04,0.11-0.06,0.26-0.06,0.41v2.91h-0.88V223.05z"/>
	<path d="M93.82,219.48v5.85c0,0.43,0.01,0.92,0.04,1.25h-0.79l-0.04-0.84h-0.02c-0.27,0.54-0.86,0.95-1.65,0.95
		c-1.17,0-2.07-0.99-2.07-2.46c-0.01-1.61,0.99-2.6,2.17-2.6c0.74,0,1.24,0.35,1.46,0.74h0.02v-2.89H93.82z M92.94,223.71
		c0-0.11-0.01-0.26-0.04-0.37c-0.13-0.56-0.61-1.02-1.27-1.02c-0.91,0-1.45,0.8-1.45,1.87c0,0.98,0.48,1.79,1.43,1.79
		c0.59,0,1.13-0.39,1.29-1.05c0.03-0.12,0.04-0.24,0.04-0.38V223.71z"/>
	<path d="M97.96,226.58l-0.07-0.61h-0.03c-0.27,0.38-0.79,0.72-1.48,0.72c-0.98,0-1.48-0.69-1.48-1.39c0-1.17,1.04-1.81,2.91-1.8
		v-0.1c0-0.4-0.11-1.12-1.1-1.12c-0.45,0-0.92,0.14-1.26,0.36l-0.2-0.58c0.4-0.26,0.98-0.43,1.59-0.43c1.48,0,1.84,1.01,1.84,1.98
		v1.81c0,0.42,0.02,0.83,0.08,1.16H97.96z M97.83,224.11c-0.96-0.02-2.05,0.15-2.05,1.09c0,0.57,0.38,0.84,0.83,0.84
		c0.63,0,1.03-0.4,1.17-0.81c0.03-0.09,0.05-0.19,0.05-0.28V224.11z"/>
	<path d="M100.1,223.25c0-0.57-0.01-1.06-0.04-1.51h0.77l0.03,0.95h0.04c0.22-0.65,0.75-1.06,1.34-1.06c0.1,0,0.17,0.01,0.25,0.03
		v0.83c-0.09-0.02-0.18-0.03-0.3-0.03c-0.62,0-1.06,0.47-1.18,1.13c-0.02,0.12-0.04,0.26-0.04,0.41v2.58h-0.87V223.25z"/>
	<path d="M107.45,219.48v5.85c0,0.43,0.01,0.92,0.04,1.25h-0.79l-0.04-0.84h-0.02c-0.27,0.54-0.86,0.95-1.65,0.95
		c-1.17,0-2.07-0.99-2.07-2.46c-0.01-1.61,0.99-2.6,2.17-2.6c0.74,0,1.24,0.35,1.46,0.74h0.02v-2.89H107.45z M106.57,223.71
		c0-0.11-0.01-0.26-0.04-0.37c-0.13-0.56-0.61-1.02-1.27-1.02c-0.91,0-1.45,0.8-1.45,1.87c0,0.98,0.48,1.79,1.43,1.79
		c0.59,0,1.13-0.39,1.29-1.05c0.03-0.12,0.04-0.24,0.04-0.38V223.71z"/>
	<path d="M115.21,219.48v5.85c0,0.43,0.01,0.92,0.04,1.25h-0.79l-0.04-0.84h-0.02c-0.27,0.54-0.86,0.95-1.65,0.95
		c-1.17,0-2.07-0.99-2.07-2.46c-0.01-1.61,0.99-2.6,2.17-2.6c0.74,0,1.24,0.35,1.46,0.74h0.02v-2.89H115.21z M114.33,223.71
		c0-0.11-0.01-0.26-0.04-0.37c-0.13-0.56-0.61-1.02-1.27-1.02c-0.91,0-1.45,0.8-1.45,1.87c0,0.98,0.48,1.79,1.43,1.79
		c0.59,0,1.13-0.39,1.29-1.05c0.03-0.12,0.04-0.24,0.04-0.38V223.71z"/>
	<path d="M120.72,225.26c0,0.5,0.01,0.94,0.04,1.32h-0.78l-0.05-0.79h-0.02c-0.23,0.39-0.74,0.9-1.6,0.9
		c-0.76,0-1.67-0.42-1.67-2.12v-2.83h0.88v2.68c0,0.92,0.28,1.54,1.08,1.54c0.59,0,1-0.41,1.16-0.8c0.05-0.13,0.08-0.29,0.08-0.45
		v-2.97h0.88V225.26z"/>
	<path d="M122.18,223.05c0-0.5-0.01-0.91-0.04-1.31h0.77l0.04,0.78h0.03c0.27-0.46,0.72-0.89,1.52-0.89c0.66,0,1.16,0.4,1.37,0.97
		h0.02c0.15-0.27,0.34-0.48,0.54-0.63c0.29-0.22,0.61-0.34,1.07-0.34c0.64,0,1.59,0.42,1.59,2.1v2.85h-0.86v-2.74
		c0-0.93-0.34-1.49-1.05-1.49c-0.5,0-0.89,0.37-1.04,0.8c-0.04,0.12-0.07,0.28-0.07,0.44v2.99h-0.86v-2.9
		c0-0.77-0.34-1.33-1.01-1.33c-0.55,0-0.95,0.44-1.09,0.88c-0.05,0.13-0.07,0.28-0.07,0.43v2.92h-0.86V223.05z"/>
	<path d="M130.52,223.05c0-0.5-0.01-0.91-0.04-1.31h0.77l0.04,0.78h0.03c0.27-0.46,0.72-0.89,1.52-0.89c0.66,0,1.16,0.4,1.37,0.97
		h0.02c0.15-0.27,0.34-0.48,0.54-0.63c0.29-0.22,0.61-0.34,1.07-0.34c0.64,0,1.59,0.42,1.59,2.1v2.85h-0.86v-2.74
		c0-0.93-0.34-1.49-1.05-1.49c-0.5,0-0.89,0.37-1.04,0.8c-0.04,0.12-0.07,0.28-0.07,0.44v2.99h-0.86v-2.9
		c0-0.77-0.34-1.33-1.01-1.33c-0.55,0-0.95,0.44-1.09,0.88c-0.05,0.13-0.07,0.28-0.07,0.43v2.92h-0.86V223.05z"/>
	<path d="M139.05,221.74l1.06,2.86c0.11,0.32,0.23,0.7,0.31,0.99h0.02c0.09-0.29,0.19-0.66,0.31-1.01l0.96-2.84h0.93l-1.32,3.45
		c-0.63,1.66-1.06,2.51-1.66,3.03c-0.43,0.38-0.86,0.53-1.08,0.57l-0.22-0.74c0.22-0.07,0.51-0.21,0.77-0.43
		c0.24-0.19,0.54-0.53,0.74-0.98c0.04-0.09,0.07-0.16,0.07-0.21s-0.02-0.12-0.06-0.23l-1.79-4.46H139.05z"/>
	<path d="M146.62,220.35v1.39h1.26v0.67h-1.26v2.61c0,0.6,0.17,0.94,0.66,0.94c0.23,0,0.4-0.03,0.51-0.06l0.04,0.66
		c-0.17,0.07-0.44,0.12-0.78,0.12c-0.41,0-0.74-0.13-0.95-0.37c-0.25-0.26-0.34-0.69-0.34-1.26v-2.64h-0.75v-0.67h0.75v-1.16
		L146.62,220.35z"/>
	<path d="M149.3,224.32c0.02,1.19,0.78,1.68,1.66,1.68c0.63,0,1.01-0.11,1.34-0.25l0.15,0.63c-0.31,0.14-0.84,0.3-1.61,0.3
		c-1.49,0-2.38-0.98-2.38-2.44c0-1.46,0.86-2.61,2.27-2.61c1.58,0,2,1.39,2,2.28c0,0.18-0.02,0.32-0.03,0.41H149.3z M151.88,223.69
		c0.01-0.56-0.23-1.43-1.22-1.43c-0.89,0-1.28,0.82-1.35,1.43H151.88z"/>
	<path d="M154.2,221.74l0.69,1.04c0.18,0.27,0.33,0.52,0.49,0.79h0.03c0.16-0.29,0.32-0.54,0.48-0.8l0.68-1.03h0.95l-1.65,2.34
		l1.7,2.5h-1l-0.71-1.09c-0.19-0.28-0.35-0.55-0.52-0.84h-0.02c-0.16,0.29-0.33,0.55-0.51,0.84l-0.7,1.09h-0.97l1.72-2.47
		l-1.64-2.37H154.2z"/>
	<path d="M159.61,220.35v1.39h1.26v0.67h-1.26v2.61c0,0.6,0.17,0.94,0.66,0.94c0.23,0,0.4-0.03,0.51-0.06l0.04,0.66
		c-0.17,0.07-0.44,0.12-0.78,0.12c-0.41,0-0.74-0.13-0.95-0.37c-0.25-0.26-0.34-0.69-0.34-1.26v-2.64H158v-0.67h0.75v-1.16
		L159.61,220.35z"/>
	<path d="M164.47,224.32c0.02,1.19,0.78,1.68,1.66,1.68c0.63,0,1.01-0.11,1.34-0.25l0.15,0.63c-0.31,0.14-0.84,0.3-1.61,0.3
		c-1.49,0-2.38-0.98-2.38-2.44c0-1.46,0.86-2.61,2.27-2.61c1.58,0,2,1.39,2,2.28c0,0.18-0.02,0.32-0.03,0.41H164.47z M167.05,223.69
		c0.01-0.56-0.23-1.43-1.22-1.43c-0.89,0-1.28,0.82-1.35,1.43H167.05z"/>
	<path d="M169.33,221.74l0.95,2.72c0.16,0.44,0.29,0.84,0.39,1.24h0.03c0.11-0.4,0.25-0.8,0.41-1.24l0.94-2.72h0.92l-1.9,4.84h-0.84
		l-1.84-4.84H169.33z"/>
	<path d="M174.19,224.32c0.02,1.19,0.78,1.68,1.66,1.68c0.63,0,1.01-0.11,1.34-0.25l0.15,0.63c-0.31,0.14-0.84,0.3-1.61,0.3
		c-1.49,0-2.38-0.98-2.38-2.44c0-1.46,0.86-2.61,2.27-2.61c1.58,0,2,1.39,2,2.28c0,0.18-0.02,0.32-0.03,0.41H174.19z M176.77,223.69
		c0.01-0.56-0.23-1.43-1.22-1.43c-0.89,0-1.28,0.82-1.35,1.43H176.77z"/>
	<path d="M178.71,223.25c0-0.57-0.01-1.06-0.04-1.51h0.77l0.03,0.95h0.04c0.22-0.65,0.75-1.06,1.34-1.06c0.1,0,0.17,0.01,0.25,0.03
		v0.83c-0.09-0.02-0.18-0.03-0.3-0.03c-0.62,0-1.06,0.47-1.18,1.13c-0.02,0.12-0.04,0.26-0.04,0.41v2.58h-0.87V223.25z"/>
	<path d="M183.98,225.68c0.26,0.17,0.72,0.35,1.16,0.35c0.64,0,0.94-0.32,0.94-0.72c0-0.42-0.25-0.65-0.9-0.89
		c-0.87-0.31-1.28-0.79-1.28-1.37c0-0.78,0.63-1.42,1.67-1.42c0.49,0,0.92,0.14,1.19,0.3l-0.22,0.64c-0.19-0.12-0.54-0.28-0.99-0.28
		c-0.52,0-0.81,0.3-0.81,0.66c0,0.4,0.29,0.58,0.92,0.82c0.84,0.32,1.27,0.74,1.27,1.46c0,0.85-0.66,1.45-1.81,1.45
		c-0.53,0-1.02-0.13-1.36-0.33L183.98,225.68z"/>
	<path d="M189.04,220.38c0.01,0.3-0.21,0.54-0.56,0.54c-0.31,0-0.53-0.24-0.53-0.54c0-0.31,0.23-0.55,0.55-0.55
		C188.83,219.83,189.04,220.07,189.04,220.38z M188.06,226.58v-4.84h0.88v4.84H188.06z"/>
	<path d="M190.4,223.05c0-0.5-0.01-0.91-0.04-1.31h0.78l0.05,0.8h0.02c0.24-0.46,0.8-0.91,1.6-0.91c0.67,0,1.71,0.4,1.71,2.06v2.89
		h-0.88v-2.79c0-0.78-0.29-1.43-1.12-1.43c-0.58,0-1.03,0.41-1.18,0.9c-0.04,0.11-0.06,0.26-0.06,0.41v2.91h-0.88V223.05z"/>
	<path d="M199.4,226.4c-0.23,0.12-0.74,0.28-1.39,0.28c-1.46,0-2.41-0.99-2.41-2.47c0-1.49,1.02-2.57,2.6-2.57
		c0.52,0,0.98,0.13,1.22,0.25l-0.2,0.68c-0.21-0.12-0.54-0.23-1.02-0.23c-1.11,0-1.71,0.82-1.71,1.83c0,1.12,0.72,1.81,1.68,1.81
		c0.5,0,0.83-0.13,1.08-0.24L199.4,226.4z"/>
	<path d="M200.86,224.32c0.02,1.19,0.78,1.68,1.66,1.68c0.63,0,1.01-0.11,1.34-0.25l0.15,0.63c-0.31,0.14-0.84,0.3-1.61,0.3
		c-1.49,0-2.38-0.98-2.38-2.44c0-1.46,0.86-2.61,2.27-2.61c1.58,0,2,1.39,2,2.28c0,0.18-0.02,0.32-0.03,0.41H200.86z M203.44,223.69
		c0.01-0.56-0.23-1.43-1.22-1.43c-0.89,0-1.28,0.82-1.35,1.43H203.44z"/>
	<path d="M208.56,220.35v1.39h1.26v0.67h-1.26v2.61c0,0.6,0.17,0.94,0.66,0.94c0.23,0,0.4-0.03,0.51-0.06l0.04,0.66
		c-0.17,0.07-0.44,0.12-0.78,0.12c-0.41,0-0.74-0.13-0.95-0.37c-0.25-0.26-0.34-0.69-0.34-1.26v-2.64h-0.75v-0.67h0.75v-1.16
		L208.56,220.35z"/>
	<path d="M210.81,219.48h0.88v3.02h0.02c0.14-0.25,0.36-0.47,0.63-0.62c0.26-0.15,0.57-0.25,0.9-0.25c0.65,0,1.69,0.4,1.69,2.07
		v2.88h-0.88v-2.78c0-0.78-0.29-1.44-1.12-1.44c-0.57,0-1.02,0.4-1.18,0.88c-0.05,0.12-0.06,0.25-0.06,0.42v2.92h-0.88V219.48z"/>
	<path d="M216.85,224.32c0.02,1.19,0.78,1.68,1.66,1.68c0.63,0,1.01-0.11,1.34-0.25l0.15,0.63c-0.31,0.14-0.84,0.3-1.61,0.3
		c-1.49,0-2.38-0.98-2.38-2.44c0-1.46,0.86-2.61,2.27-2.61c1.58,0,2,1.39,2,2.28c0,0.18-0.02,0.32-0.03,0.41H216.85z M219.43,223.69
		c0.01-0.56-0.23-1.43-1.22-1.43c-0.89,0-1.28,0.82-1.35,1.43H219.43z"/>
	<path d="M114.83,232.9h-0.02l-1.13,0.61l-0.17-0.67l1.42-0.76h0.75v6.5h-0.85V232.9z"/>
	<path d="M121.92,232.82h-2.48l-0.25,1.67c0.15-0.02,0.29-0.04,0.53-0.04c0.5,0,1,0.11,1.4,0.35c0.51,0.29,0.93,0.85,0.93,1.67
		c0,1.27-1.01,2.22-2.42,2.22c-0.71,0-1.31-0.2-1.62-0.4l0.22-0.67c0.27,0.16,0.8,0.36,1.39,0.36c0.83,0,1.54-0.54,1.54-1.41
		c-0.01-0.84-0.57-1.44-1.87-1.44c-0.37,0-0.66,0.04-0.9,0.07l0.42-3.12h3.11V232.82z"/>
	<path d="M127.49,235.26c0,2.21-0.82,3.43-2.26,3.43c-1.27,0-2.13-1.19-2.15-3.34c0-2.18,0.94-3.38,2.26-3.38
		C126.71,231.97,127.49,233.19,127.49,235.26z M123.97,235.36c0,1.69,0.52,2.65,1.32,2.65c0.9,0,1.33-1.05,1.33-2.71
		c0-1.6-0.41-2.65-1.32-2.65C124.53,232.65,123.97,233.59,123.97,235.36z"/>
	<path d="M132.62,235.26c0,2.21-0.82,3.43-2.26,3.43c-1.27,0-2.13-1.19-2.15-3.34c0-2.18,0.94-3.38,2.26-3.38
		C131.84,231.97,132.62,233.19,132.62,235.26z M129.1,235.36c0,1.69,0.52,2.65,1.32,2.65c0.9,0,1.33-1.05,1.33-2.71
		c0-1.6-0.41-2.65-1.32-2.65C129.66,232.65,129.1,233.59,129.1,235.36z"/>
	<path d="M133.6,237.68c0.26,0.17,0.72,0.35,1.16,0.35c0.64,0,0.94-0.32,0.94-0.72c0-0.42-0.25-0.65-0.9-0.89
		c-0.87-0.31-1.28-0.79-1.28-1.37c0-0.78,0.63-1.42,1.67-1.42c0.49,0,0.92,0.14,1.19,0.3l-0.22,0.64c-0.19-0.12-0.54-0.28-0.99-0.28
		c-0.52,0-0.81,0.3-0.81,0.66c0,0.4,0.29,0.58,0.92,0.82c0.84,0.32,1.27,0.74,1.27,1.46c0,0.85-0.66,1.45-1.81,1.45
		c-0.53,0-1.02-0.13-1.36-0.33L133.6,237.68z"/>
</g>
<g>
	<rect x="11.83" y="8.38" class="st3" width="95.11" height="111.69"/>
	<path class="st4" d="M106.28,133.65c-1.17,2.15-3.98,4.04-3.98,4.04s-2.81-1.89-3.97-4.04c-1.32-2.43-0.59-4.91,1.31-4.91
		c2.12,0,2.67,2.64,2.67,2.64s0.56-2.64,2.67-2.64C106.86,128.74,107.6,131.22,106.28,133.65z"/>
	<rect x="11.83" y="130.51" class="st5" width="59.79" height="1.69"/>
	<rect x="11.83" y="133.67" class="st5" width="51.42" height="1.69"/>
	<g>
		<path class="st6" d="M15.75,142.39c0.22,0,0.39,0.17,0.39,0.39v0.2c0.53,0.06,0.98,0.23,1.4,0.49c0.14,0.08,0.27,0.22,0.27,0.43
			c0,0.28-0.23,0.49-0.5,0.49c-0.09,0-0.18-0.03-0.27-0.08c-0.31-0.19-0.62-0.32-0.93-0.4v1.73c1.37,0.34,1.95,0.89,1.95,1.86
			c0,0.99-0.77,1.65-1.92,1.76v0.54c0,0.22-0.17,0.39-0.39,0.39c-0.22,0-0.4-0.17-0.4-0.39v-0.56c-0.68-0.07-1.3-0.31-1.85-0.7
			c-0.15-0.1-0.24-0.24-0.24-0.43c0-0.28,0.22-0.49,0.5-0.49c0.11,0,0.22,0.04,0.3,0.1c0.42,0.31,0.84,0.51,1.33,0.6v-1.77
			c-1.31-0.34-1.93-0.84-1.93-1.86c0-0.96,0.77-1.63,1.89-1.72v-0.19C15.35,142.56,15.53,142.39,15.75,142.39z M15.39,145.46v-1.59
			c-0.58,0.05-0.86,0.36-0.86,0.76C14.52,145,14.69,145.24,15.39,145.46z M16.1,146.71v1.64c0.58-0.06,0.89-0.35,0.89-0.78
			C16.99,147.17,16.79,146.93,16.1,146.71z"/>
		<path class="st6" d="M23.06,148.77c0,0.28-0.22,0.49-0.5,0.49h-3.19c0,0,0,0-0.01,0h-0.01c-0.14,0-0.28-0.05-0.37-0.16
			c-0.19-0.21-0.17-0.51,0.03-0.7l2.67-2.41c0.26-0.23,0.38-0.54,0.38-0.86c0-0.29-0.1-0.56-0.3-0.78
			c-0.23-0.26-0.55-0.38-0.86-0.38c-0.28,0-0.56,0.1-0.78,0.3l-0.28,0.25c-0.21,0.19-0.51,0.17-0.7-0.04
			c-0.18-0.21-0.17-0.51,0.04-0.7l0.28-0.25c0.41-0.38,0.94-0.56,1.45-0.56c0.59,0,1.18,0.24,1.6,0.71
			c0.38,0.41,0.56,0.94,0.56,1.45c0,0.59-0.24,1.18-0.71,1.6l-1.7,1.54h1.92C22.85,148.26,23.06,148.49,23.06,148.77z"/>
		<path class="st6" d="M24.31,146.11c0.01-0.83,0.22-1.58,0.61-2.15c0.38-0.58,0.96-1,1.67-1c0.69,0,1.29,0.42,1.67,1
			c0.39,0.58,0.6,1.32,0.6,2.15c0,0.82-0.22,1.58-0.6,2.15c-0.38,0.57-0.97,1-1.67,1c-0.71,0-1.3-0.43-1.67-1
			C24.52,147.69,24.32,146.93,24.31,146.11z M27.86,146.11c0-0.65-0.18-1.22-0.43-1.6c-0.26-0.38-0.56-0.56-0.84-0.55
			c-0.28-0.01-0.59,0.17-0.86,0.55c-0.25,0.39-0.43,0.95-0.43,1.6c0,0.64,0.18,1.22,0.43,1.59c0.27,0.39,0.58,0.56,0.86,0.56
			c0.28,0,0.58-0.17,0.84-0.56C27.68,147.33,27.86,146.75,27.86,146.11z"/>
		<path class="st6" d="M31.34,147.98c0.37,0,0.68,0.31,0.68,0.68c0,0.37-0.31,0.67-0.68,0.67s-0.67-0.3-0.67-0.67
			C30.68,148.29,30.98,147.98,31.34,147.98z"/>
		<path class="st6" d="M32.42,146.11c0.01-0.83,0.22-1.58,0.61-2.15c0.38-0.58,0.96-1,1.67-1c0.69,0,1.29,0.42,1.67,1
			c0.39,0.58,0.6,1.32,0.6,2.15c0,0.82-0.22,1.58-0.6,2.15c-0.38,0.57-0.97,1-1.67,1c-0.71,0-1.3-0.43-1.67-1
			C32.63,147.69,32.43,146.93,32.42,146.11z M35.97,146.11c0-0.65-0.18-1.22-0.43-1.6c-0.26-0.38-0.56-0.56-0.84-0.55
			c-0.28-0.01-0.59,0.17-0.86,0.55c-0.25,0.39-0.43,0.95-0.43,1.6c0,0.64,0.18,1.22,0.43,1.59c0.27,0.39,0.58,0.56,0.86,0.56
			c0.28,0,0.58-0.17,0.84-0.56C35.79,147.33,35.97,146.75,35.97,146.11z"/>
		<path class="st6" d="M38.81,146.11c0.01-0.83,0.22-1.58,0.61-2.15c0.38-0.58,0.96-1,1.67-1c0.69,0,1.29,0.42,1.67,1
			c0.39,0.58,0.6,1.32,0.6,2.15c0,0.82-0.22,1.58-0.6,2.15c-0.38,0.57-0.97,1-1.67,1c-0.71,0-1.3-0.43-1.67-1
			C39.03,147.69,38.82,146.93,38.81,146.11z M42.37,146.11c0-0.65-0.18-1.22-0.43-1.6c-0.26-0.38-0.56-0.56-0.84-0.55
			c-0.28-0.01-0.59,0.17-0.86,0.55c-0.25,0.39-0.43,0.95-0.43,1.6c0,0.64,0.18,1.22,0.43,1.59c0.27,0.39,0.58,0.56,0.86,0.56
			c0.28,0,0.58-0.17,0.84-0.56C42.19,147.33,42.37,146.75,42.37,146.11z"/>
	</g>
	<g>
		<rect x="20.01" y="156.65" class="st6" width="76.59" height="16.81"/>
		<g>
			<path class="st7" d="M32.03,167.04h-2.19l-0.44,1.17c-0.08,0.2-0.27,0.32-0.47,0.32c-0.06,0-0.12-0.01-0.17-0.03
				c-0.26-0.1-0.39-0.39-0.3-0.65l1.99-5.3c0.08-0.2,0.28-0.32,0.48-0.32c0.21-0.01,0.4,0.12,0.48,0.32l1.99,5.3
				c0.09,0.26-0.04,0.55-0.3,0.65c-0.05,0.02-0.11,0.03-0.17,0.03c-0.2,0-0.39-0.12-0.46-0.32L32.03,167.04z M31.66,166.05
				l-0.73-1.94l-0.73,1.94H31.66z"/>
			<path class="st7" d="M34.64,168.04v-5.31c0-0.28,0.22-0.5,0.49-0.5h1.06c1.74,0,3.14,1.41,3.14,3.14c0,1.75-1.4,3.16-3.14,3.16
				h-1.06C34.86,168.53,34.64,168.3,34.64,168.04z M35.64,167.53h0.56c1.19-0.01,2.14-0.96,2.14-2.16c0-1.18-0.95-2.14-2.14-2.14
				h-0.56V167.53z"/>
			<path class="st7" d="M40.85,168.04v-5.31c0-0.28,0.22-0.5,0.5-0.5h1.06c1.74,0,3.14,1.41,3.14,3.14c0,1.75-1.4,3.16-3.14,3.16
				h-1.06C41.06,168.53,40.85,168.3,40.85,168.04z M41.85,167.53h0.56c1.19-0.01,2.14-0.96,2.14-2.16c0-1.18-0.95-2.14-2.14-2.14
				h-0.56V167.53z"/>
			<path class="st7" d="M53.88,163.23h-1.43v4.81c0,0.28-0.22,0.49-0.5,0.49c-0.27,0-0.5-0.22-0.5-0.49v-4.81h-1.42
				c-0.28,0-0.5-0.23-0.5-0.5c0-0.28,0.22-0.5,0.5-0.5h3.85c0.27,0,0.5,0.22,0.5,0.5C54.38,162.99,54.15,163.23,53.88,163.23z"/>
			<path class="st7" d="M60.34,163.01c0.56,0.59,0.91,1.39,0.91,2.28c0,0.89-0.35,1.69-0.91,2.28c-0.53,0.59-1.32,0.96-2.15,0.96
				c-0.86,0-1.66-0.38-2.21-0.96c-0.56-0.59-0.89-1.39-0.89-2.28c0-0.89,0.33-1.68,0.89-2.28c0.55-0.59,1.34-0.96,2.21-0.96
				C59.02,162.05,59.81,162.42,60.34,163.01z M60.23,165.29c0-0.61-0.24-1.18-0.61-1.58c-0.38-0.41-0.88-0.64-1.42-0.64
				c-0.58,0-1.08,0.23-1.46,0.64c-0.38,0.4-0.61,0.96-0.61,1.58c0,0.61,0.23,1.18,0.61,1.57c0.38,0.4,0.88,0.65,1.46,0.65
				c0.54,0,1.04-0.24,1.42-0.65C59.98,166.47,60.23,165.9,60.23,165.29z"/>
			<path class="st7" d="M65.46,165.29c0.01-1.78,1.5-3.23,3.3-3.24c0.79,0,1.51,0.26,2.08,0.7c0.22,0.18,0.25,0.5,0.09,0.72
				c-0.18,0.23-0.51,0.26-0.72,0.1c-0.4-0.32-0.89-0.49-1.45-0.49c-0.62,0-1.2,0.25-1.62,0.65c-0.4,0.41-0.66,0.95-0.66,1.57
				c0,0.61,0.25,1.17,0.66,1.57c0.42,0.4,1,0.65,1.62,0.65c0.56,0,1.04-0.17,1.45-0.5c0.21-0.15,0.54-0.12,0.72,0.1
				c0.16,0.23,0.13,0.55-0.09,0.72c-0.57,0.44-1.29,0.7-2.08,0.7C66.96,168.53,65.46,167.08,65.46,165.29z"/>
			<path class="st7" d="M75.76,167.04h-2.19l-0.44,1.17c-0.08,0.2-0.27,0.32-0.47,0.32c-0.06,0-0.12-0.01-0.17-0.03
				c-0.26-0.1-0.39-0.39-0.3-0.65l1.99-5.3c0.08-0.2,0.28-0.32,0.48-0.32c0.21-0.01,0.4,0.12,0.48,0.32l1.99,5.3
				c0.09,0.26-0.04,0.55-0.3,0.65c-0.05,0.02-0.11,0.03-0.17,0.03c-0.2,0-0.39-0.12-0.46-0.32L75.76,167.04z M75.39,166.05
				l-0.73-1.94l-0.73,1.94H75.39z"/>
			<path class="st7" d="M82.54,167.78c0.09,0.26-0.05,0.54-0.32,0.63c-0.04,0.01-0.11,0.03-0.2,0.03c0,0,0,0-0.01,0
				c-0.09,0-0.23-0.02-0.35-0.1c-0.12-0.07-0.22-0.19-0.29-0.32c-0.13-0.26-0.19-0.59-0.19-1.08c-0.01-0.17-0.04-0.29-0.11-0.39
				c-0.05-0.1-0.16-0.19-0.27-0.26c-0.19-0.13-0.42-0.2-0.5-0.22h-1.06v1.95c0,0.27-0.23,0.49-0.5,0.49c-0.28,0-0.5-0.23-0.5-0.49
				v-5.31c0-0.28,0.22-0.5,0.5-0.5c0,0,0,0,0.01,0h1.6c1.07,0,1.93,0.86,1.93,1.94c0,0.59-0.27,1.12-0.7,1.48
				c0.12,0.09,0.23,0.2,0.32,0.33c0.18,0.26,0.3,0.59,0.3,0.97c-0.01,0.27,0.02,0.44,0.04,0.53
				C82.37,167.52,82.48,167.63,82.54,167.78z M81.28,164.16c0-0.52-0.41-0.94-0.93-0.94h-1.11v1.86h1.11
				C80.86,165.08,81.28,164.67,81.28,164.16z"/>
			<path class="st7" d="M87.67,163.23h-1.43v4.81c0,0.28-0.22,0.49-0.49,0.49c-0.27,0-0.5-0.22-0.5-0.49v-4.81h-1.42
				c-0.28,0-0.5-0.23-0.5-0.5c0-0.28,0.22-0.5,0.5-0.5h3.85c0.27,0,0.49,0.22,0.49,0.5C88.17,162.99,87.94,163.23,87.67,163.23z"/>
		</g>
	</g>
	<g>
		<path class="st4" d="M89.11,106.26c-0.07,0.53-4.65,5.79-9.04,5.78c-8.8-0.02-13.1,3.99-20.67,3.99c-7.58,0-11.87-4.01-20.68-3.99
			c-4.38,0.01-8.97-5.25-9.04-5.78c-0.07-0.53,12.96-55.58,12.96-55.58s-1-0.8-1.13-2.52c-0.13-1.73,2.96-17.62,3.02-19.61
			c0.07-2-1.69-13.96-1.49-14.89c0.2-0.93,5.12-1.53,5.25-1.07c0.13,0.47,1.19,12.23,1.79,13.36c0.6,1.13,6.12,2,9.31,2
			c3.19,0,8.71-0.86,9.31-2c0.59-1.13,1.66-12.89,1.79-13.36c0.13-0.46,5.05,0.14,5.25,1.07c0.2,0.93-1.57,12.89-1.5,14.89
			c0.07,1.99,3.16,17.88,3.03,19.61c-0.14,1.73-1.13,2.52-1.13,2.52S89.17,105.72,89.11,106.26z"/>
		<g>
			<path class="st7" d="M49.53,36.9c-0.46,0-0.84-0.38-0.84-0.84c0-0.46,0.38-0.84,0.84-0.84c0.46,0,0.84,0.38,0.84,0.84
				C50.37,36.53,49.99,36.9,49.53,36.9z M49.53,35.42c-0.36,0-0.65,0.29-0.65,0.65c0,0.36,0.29,0.65,0.65,0.65
				c0.36,0,0.65-0.29,0.65-0.65C50.18,35.71,49.89,35.42,49.53,35.42z"/>
			<path class="st7" d="M48.54,49.9c-0.46,0-0.84-0.38-0.84-0.84c0-0.46,0.38-0.84,0.84-0.84c0.46,0,0.84,0.38,0.84,0.84
				C49.38,49.53,49,49.9,48.54,49.9z M48.54,48.42c-0.36,0-0.65,0.29-0.65,0.65s0.29,0.65,0.65,0.65s0.65-0.29,0.65-0.65
				S48.9,48.42,48.54,48.42z"/>
			<path class="st7" d="M42.43,48.68c-0.46,0-0.84-0.38-0.84-0.84c0-0.46,0.38-0.84,0.84-0.84c0.46,0,0.84,0.38,0.84,0.84
				C43.26,48.3,42.89,48.68,42.43,48.68z M42.43,47.19c-0.36,0-0.65,0.29-0.65,0.65c0,0.36,0.29,0.65,0.65,0.65s0.65-0.29,0.65-0.65
				C43.07,47.49,42.78,47.19,42.43,47.19z"/>
			<path class="st7" d="M49.29,56.53c-0.46,0-0.84-0.38-0.84-0.84c0-0.46,0.38-0.84,0.84-0.84c0.46,0,0.84,0.38,0.84,0.84
				C50.12,56.15,49.75,56.53,49.29,56.53z M49.29,55.04c-0.36,0-0.65,0.29-0.65,0.65s0.29,0.65,0.65,0.65s0.65-0.29,0.65-0.65
				S49.64,55.04,49.29,55.04z"/>
			<path class="st7" d="M42.05,57.54c-0.46,0-0.84-0.38-0.84-0.84c0-0.46,0.38-0.84,0.84-0.84c0.46,0,0.84,0.38,0.84,0.84
				C42.89,57.17,42.51,57.54,42.05,57.54z M42.05,56.06c-0.36,0-0.65,0.29-0.65,0.65c0,0.36,0.29,0.65,0.65,0.65
				s0.65-0.29,0.65-0.65C42.7,56.35,42.41,56.06,42.05,56.06z"/>
			<path class="st7" d="M50.28,43.01c-0.46,0-0.84-0.38-0.84-0.84c0-0.46,0.38-0.84,0.84-0.84s0.84,0.38,0.84,0.84
				C51.11,42.64,50.74,43.01,50.28,43.01z M50.28,41.53c-0.36,0-0.65,0.29-0.65,0.65c0,0.36,0.29,0.65,0.65,0.65
				s0.65-0.29,0.65-0.65C50.92,41.82,50.63,41.53,50.28,41.53z"/>
			<path class="st7" d="M53.08,52.9c-0.46,0-0.84-0.38-0.84-0.84c0-0.46,0.38-0.84,0.84-0.84c0.46,0,0.84,0.38,0.84,0.84
				C53.91,52.52,53.54,52.9,53.08,52.9z M53.08,51.41c-0.36,0-0.65,0.29-0.65,0.65c0,0.36,0.29,0.65,0.65,0.65s0.65-0.29,0.65-0.65
				C53.72,51.7,53.43,51.41,53.08,51.41z"/>
			<path class="st7" d="M58.85,62.14c-0.46,0-0.84-0.38-0.84-0.84c0-0.46,0.38-0.84,0.84-0.84c0.46,0,0.84,0.38,0.84,0.84
				C59.68,61.77,59.31,62.14,58.85,62.14z M58.85,60.66c-0.36,0-0.65,0.29-0.65,0.65c0,0.36,0.29,0.65,0.65,0.65
				c0.36,0,0.65-0.29,0.65-0.65C59.49,60.95,59.2,60.66,58.85,60.66z"/>
			<path class="st7" d="M71.05,65.53c-0.46,0-0.84-0.38-0.84-0.84c0-0.46,0.37-0.84,0.84-0.84s0.84,0.38,0.84,0.84
				C71.88,65.16,71.51,65.53,71.05,65.53z M71.05,64.05c-0.36,0-0.65,0.29-0.65,0.65c0,0.36,0.29,0.65,0.65,0.65
				s0.65-0.29,0.65-0.65C71.7,64.34,71.41,64.05,71.05,64.05z"/>
			<path class="st7" d="M55.64,66.5c-0.46,0-0.84-0.38-0.84-0.84c0-0.46,0.38-0.84,0.84-0.84c0.46,0,0.84,0.38,0.84,0.84
				C56.48,66.12,56.1,66.5,55.64,66.5z M55.64,65.01c-0.36,0-0.65,0.29-0.65,0.65c0,0.36,0.29,0.65,0.65,0.65
				c0.36,0,0.65-0.29,0.65-0.65C56.29,65.3,56,65.01,55.64,65.01z"/>
			<path class="st7" d="M46.73,73.38c-0.46,0-0.84-0.38-0.84-0.84c0-0.46,0.38-0.84,0.84-0.84c0.46,0,0.84,0.38,0.84,0.84
				C47.56,73,47.19,73.38,46.73,73.38z M46.73,71.89c-0.36,0-0.65,0.29-0.65,0.65c0,0.36,0.29,0.65,0.65,0.65
				c0.36,0,0.65-0.29,0.65-0.65C47.38,72.19,47.09,71.89,46.73,71.89z"/>
			<path class="st7" d="M39.09,80.22c-0.46,0-0.84-0.38-0.84-0.84c0-0.46,0.38-0.84,0.84-0.84c0.46,0,0.84,0.38,0.84,0.84
				C39.93,79.85,39.55,80.22,39.09,80.22z M39.09,78.74c-0.36,0-0.65,0.29-0.65,0.65s0.29,0.65,0.65,0.65s0.65-0.29,0.65-0.65
				S39.45,78.74,39.09,78.74z"/>
			<path class="st7" d="M51.37,83.24c-0.46,0-0.84-0.38-0.84-0.84c0-0.46,0.38-0.84,0.84-0.84c0.46,0,0.84,0.38,0.84,0.84
				C52.21,82.86,51.83,83.24,51.37,83.24z M51.37,81.75c-0.36,0-0.65,0.29-0.65,0.65c0,0.36,0.29,0.65,0.65,0.65
				s0.65-0.29,0.65-0.65C52.02,82.05,51.73,81.75,51.37,81.75z"/>
			<path class="st7" d="M48.54,24.81c-0.46,0-0.84-0.38-0.84-0.84c0-0.46,0.38-0.84,0.84-0.84c0.46,0,0.84,0.38,0.84,0.84
				C49.38,24.43,49,24.81,48.54,24.81z M48.54,23.33c-0.36,0-0.65,0.29-0.65,0.65c0,0.36,0.29,0.65,0.65,0.65s0.65-0.29,0.65-0.65
				C49.19,23.62,48.9,23.33,48.54,23.33z"/>
			<path class="st7" d="M52.11,32.1c-0.46,0-0.84-0.38-0.84-0.84c0-0.46,0.38-0.84,0.84-0.84c0.46,0,0.84,0.38,0.84,0.84
				C52.95,31.73,52.57,32.1,52.11,32.1z M52.11,30.62c-0.36,0-0.65,0.29-0.65,0.65c0,0.36,0.29,0.65,0.65,0.65s0.65-0.29,0.65-0.65
				C52.76,30.91,52.47,30.62,52.11,30.62z"/>
			<path class="st7" d="M61.33,39.5c-0.46,0-0.84-0.38-0.84-0.84c0-0.46,0.38-0.84,0.84-0.84c0.46,0,0.84,0.38,0.84,0.84
				C62.16,39.12,61.79,39.5,61.33,39.5z M61.33,38.02c-0.36,0-0.65,0.29-0.65,0.65s0.29,0.65,0.65,0.65c0.36,0,0.65-0.29,0.65-0.65
				S61.69,38.02,61.33,38.02z"/>
			<path class="st7" d="M57.64,43.75c-0.46,0-0.84-0.38-0.84-0.84c0-0.46,0.38-0.84,0.84-0.84c0.46,0,0.84,0.38,0.84,0.84
				C58.47,43.38,58.1,43.75,57.64,43.75z M57.64,42.27c-0.36,0-0.65,0.29-0.65,0.65c0,0.36,0.29,0.65,0.65,0.65
				c0.36,0,0.65-0.29,0.65-0.65C58.28,42.56,57.99,42.27,57.64,42.27z"/>
			<path class="st7" d="M63.56,52.6c-0.46,0-0.84-0.38-0.84-0.84c0-0.46,0.37-0.84,0.84-0.84c0.46,0,0.84,0.38,0.84,0.84
				C64.39,52.22,64.02,52.6,63.56,52.6z M63.56,51.11c-0.36,0-0.65,0.29-0.65,0.65s0.29,0.65,0.65,0.65c0.36,0,0.65-0.29,0.65-0.65
				S63.91,51.11,63.56,51.11z"/>
			<path class="st7" d="M70.87,58.75c-0.46,0-0.84-0.38-0.84-0.84c0-0.46,0.37-0.84,0.84-0.84s0.84,0.38,0.84,0.84
				C71.71,58.38,71.34,58.75,70.87,58.75z M70.87,57.27c-0.36,0-0.65,0.29-0.65,0.65c0,0.36,0.29,0.65,0.65,0.65
				c0.36,0,0.65-0.29,0.65-0.65C71.52,57.56,71.23,57.27,70.87,57.27z"/>
			<path class="st7" d="M78.02,65.06c-0.46,0-0.84-0.38-0.84-0.84c0-0.46,0.37-0.84,0.84-0.84c0.46,0,0.84,0.38,0.84,0.84
				C78.86,64.69,78.48,65.06,78.02,65.06z M78.02,63.58c-0.36,0-0.65,0.29-0.65,0.65c0,0.36,0.29,0.65,0.65,0.65
				c0.36,0,0.65-0.29,0.65-0.65C78.67,63.87,78.38,63.58,78.02,63.58z"/>
			<path class="st7" d="M52.86,46.92c-0.46,0-0.84-0.38-0.84-0.84c0-0.46,0.38-0.84,0.84-0.84c0.46,0,0.84,0.38,0.84,0.84
				C53.69,46.55,53.32,46.92,52.86,46.92z M52.86,45.44c-0.36,0-0.65,0.29-0.65,0.65s0.29,0.65,0.65,0.65s0.65-0.29,0.65-0.65
				S53.21,45.44,52.86,45.44z"/>
			<path class="st7" d="M58.1,55.32c-0.46,0-0.84-0.38-0.84-0.84c0-0.46,0.38-0.84,0.84-0.84c0.46,0,0.84,0.38,0.84,0.84
				C58.94,54.94,58.56,55.32,58.1,55.32z M58.1,53.83c-0.36,0-0.65,0.29-0.65,0.65s0.29,0.65,0.65,0.65s0.65-0.29,0.65-0.65
				S58.46,53.83,58.1,53.83z"/>
			<path class="st7" d="M50.63,64.05c-0.46,0-0.84-0.38-0.84-0.84c0-0.46,0.38-0.84,0.84-0.84c0.46,0,0.84,0.38,0.84,0.84
				C51.46,63.67,51.09,64.05,50.63,64.05z M50.63,62.56c-0.36,0-0.65,0.29-0.65,0.65s0.29,0.65,0.65,0.65
				c0.36,0,0.65-0.29,0.65-0.65S50.99,62.56,50.63,62.56z"/>
			<path class="st7" d="M46.52,67.57c-0.46,0-0.84-0.38-0.84-0.84c0-0.46,0.38-0.84,0.84-0.84c0.46,0,0.84,0.38,0.84,0.84
				C47.35,67.2,46.98,67.57,46.52,67.57z M46.52,66.09c-0.36,0-0.65,0.29-0.65,0.65s0.29,0.65,0.65,0.65s0.65-0.29,0.65-0.65
				S46.87,66.09,46.52,66.09z"/>
			<path class="st7" d="M39.36,74.04c-0.46,0-0.84-0.38-0.84-0.84c0-0.46,0.38-0.84,0.84-0.84c0.46,0,0.84,0.38,0.84,0.84
				C40.2,73.67,39.82,74.04,39.36,74.04z M39.36,72.56c-0.36,0-0.65,0.29-0.65,0.65c0,0.36,0.29,0.65,0.65,0.65
				c0.36,0,0.65-0.29,0.65-0.65C40.01,72.85,39.72,72.56,39.36,72.56z"/>
			<path class="st7" d="M42.42,70.66c-0.46,0-0.84-0.38-0.84-0.84c0-0.46,0.38-0.84,0.84-0.84c0.46,0,0.84,0.38,0.84,0.84
				C43.26,70.29,42.88,70.66,42.42,70.66z M42.42,69.18c-0.36,0-0.65,0.29-0.65,0.65s0.29,0.65,0.65,0.65
				c0.36,0,0.65-0.29,0.65-0.65S42.78,69.18,42.42,69.18z"/>
			<path class="st7" d="M42.79,63.9c-0.46,0-0.84-0.38-0.84-0.84c0-0.46,0.38-0.84,0.84-0.84c0.46,0,0.84,0.38,0.84,0.84
				C43.63,63.52,43.25,63.9,42.79,63.9z M42.79,62.41c-0.36,0-0.65,0.29-0.65,0.65s0.29,0.65,0.65,0.65s0.65-0.29,0.65-0.65
				S43.15,62.41,42.79,62.41z"/>
			<path class="st7" d="M51.37,76.38c-0.46,0-0.84-0.38-0.84-0.84c0-0.46,0.38-0.84,0.84-0.84c0.46,0,0.84,0.38,0.84,0.84
				C52.21,76,51.83,76.38,51.37,76.38z M51.37,74.9c-0.36,0-0.65,0.29-0.65,0.65c0,0.36,0.29,0.65,0.65,0.65s0.65-0.29,0.65-0.65
				C52.02,75.19,51.73,74.9,51.37,74.9z"/>
			<path class="st7" d="M43.16,77.12c-0.46,0-0.84-0.38-0.84-0.84c0-0.46,0.38-0.84,0.84-0.84c0.46,0,0.84,0.38,0.84,0.84
				C44,76.75,43.63,77.12,43.16,77.12z M43.16,75.64c-0.36,0-0.65,0.29-0.65,0.65c0,0.36,0.29,0.65,0.65,0.65s0.65-0.29,0.65-0.65
				C43.81,75.93,43.52,75.64,43.16,75.64z"/>
			<path class="st7" d="M36.13,83.46c-0.46,0-0.84-0.38-0.84-0.84c0-0.46,0.38-0.84,0.84-0.84c0.46,0,0.84,0.38,0.84,0.84
				C36.97,83.09,36.59,83.46,36.13,83.46z M36.13,81.98c-0.36,0-0.65,0.29-0.65,0.65c0,0.36,0.29,0.65,0.65,0.65
				s0.65-0.29,0.65-0.65C36.78,82.27,36.49,81.98,36.13,81.98z"/>
			<path class="st7" d="M42.79,83.46c-0.46,0-0.84-0.38-0.84-0.84c0-0.46,0.38-0.84,0.84-0.84c0.46,0,0.84,0.38,0.84,0.84
				C43.63,83.09,43.25,83.46,42.79,83.46z M42.79,81.98c-0.36,0-0.65,0.29-0.65,0.65c0,0.36,0.29,0.65,0.65,0.65
				s0.65-0.29,0.65-0.65C43.44,82.27,43.15,81.98,42.79,81.98z"/>
			<path class="st7" d="M35.08,90.04c-0.46,0-0.84-0.37-0.84-0.84c0-0.46,0.38-0.84,0.84-0.84c0.46,0,0.84,0.38,0.84,0.84
				C35.91,89.67,35.54,90.04,35.08,90.04z M35.08,88.56c-0.36,0-0.65,0.29-0.65,0.65c0,0.36,0.29,0.65,0.65,0.65
				c0.36,0,0.65-0.29,0.65-0.65C35.73,88.85,35.43,88.56,35.08,88.56z"/>
			<path class="st7" d="M42.79,90.04c-0.46,0-0.84-0.37-0.84-0.84c0-0.46,0.38-0.84,0.84-0.84c0.46,0,0.84,0.38,0.84,0.84
				C43.63,89.67,43.25,90.04,42.79,90.04z M42.79,88.56c-0.36,0-0.65,0.29-0.65,0.65c0,0.36,0.29,0.65,0.65,0.65
				s0.65-0.29,0.65-0.65C43.44,88.85,43.15,88.56,42.79,88.56z"/>
			<path class="st7" d="M34.65,96.62c-0.46,0-0.84-0.37-0.84-0.84s0.38-0.84,0.84-0.84c0.46,0,0.84,0.37,0.84,0.84
				S35.11,96.62,34.65,96.62z M34.65,95.14c-0.36,0-0.65,0.29-0.65,0.65c0,0.36,0.29,0.65,0.65,0.65c0.36,0,0.65-0.29,0.65-0.65
				C35.3,95.43,35.01,95.14,34.65,95.14z"/>
			<path class="st7" d="M39.82,67.24c-0.46,0-0.84-0.38-0.84-0.84c0-0.46,0.38-0.84,0.84-0.84c0.46,0,0.84,0.38,0.84,0.84
				C40.66,66.86,40.28,67.24,39.82,67.24z M39.82,65.75c-0.36,0-0.65,0.29-0.65,0.65s0.29,0.65,0.65,0.65s0.65-0.29,0.65-0.65
				S40.18,65.75,39.82,65.75z"/>
			<path class="st7" d="M46.3,60.8c-0.46,0-0.84-0.38-0.84-0.84c0-0.46,0.38-0.84,0.84-0.84c0.46,0,0.84,0.38,0.84,0.84
				C47.14,60.43,46.76,60.8,46.3,60.8z M46.3,59.32c-0.36,0-0.65,0.29-0.65,0.65c0,0.36,0.29,0.65,0.65,0.65
				c0.36,0,0.65-0.29,0.65-0.65C46.95,59.61,46.66,59.32,46.3,59.32z"/>
			<path class="st7" d="M44.58,53.07c-0.46,0-0.84-0.38-0.84-0.84c0-0.46,0.38-0.84,0.84-0.84c0.46,0,0.84,0.38,0.84,0.84
				C45.42,52.7,45.04,53.07,44.58,53.07z M44.58,51.59c-0.36,0-0.65,0.29-0.65,0.65c0,0.36,0.29,0.65,0.65,0.65s0.65-0.29,0.65-0.65
				C45.23,51.88,44.94,51.59,44.58,51.59z"/>
			<path class="st7" d="M45.82,40.98c-0.46,0-0.84-0.38-0.84-0.84c0-0.46,0.38-0.84,0.84-0.84c0.46,0,0.84,0.38,0.84,0.84
				C46.66,40.61,46.28,40.98,45.82,40.98z M45.82,39.5c-0.36,0-0.65,0.29-0.65,0.65s0.29,0.65,0.65,0.65s0.65-0.29,0.65-0.65
				S46.18,39.5,45.82,39.5z"/>
			<path class="st7" d="M62.81,32.84c-0.46,0-0.84-0.38-0.84-0.84c0-0.46,0.37-0.84,0.84-0.84c0.46,0,0.84,0.38,0.84,0.84
				C63.65,32.47,63.27,32.84,62.81,32.84z M62.81,31.36c-0.36,0-0.65,0.29-0.65,0.65c0,0.36,0.29,0.65,0.65,0.65
				c0.36,0,0.65-0.29,0.65-0.65C63.46,31.65,63.17,31.36,62.81,31.36z"/>
			<path class="st7" d="M71.05,33.93c-0.46,0-0.84-0.38-0.84-0.84s0.37-0.84,0.84-0.84s0.84,0.38,0.84,0.84S71.51,33.93,71.05,33.93
				z M71.05,32.45c-0.36,0-0.65,0.29-0.65,0.65s0.29,0.65,0.65,0.65s0.65-0.29,0.65-0.65S71.41,32.45,71.05,32.45z"/>
			<path class="st7" d="M67.7,48.93c-0.46,0-0.84-0.38-0.84-0.84c0-0.46,0.37-0.84,0.84-0.84c0.46,0,0.84,0.38,0.84,0.84
				C68.54,48.55,68.16,48.93,67.7,48.93z M67.7,47.44c-0.36,0-0.65,0.29-0.65,0.65s0.29,0.65,0.65,0.65c0.36,0,0.65-0.29,0.65-0.65
				S68.06,47.44,67.7,47.44z"/>
			<path class="st7" d="M62.81,58.75c-0.46,0-0.84-0.38-0.84-0.84c0-0.46,0.37-0.84,0.84-0.84c0.46,0,0.84,0.38,0.84,0.84
				C63.65,58.38,63.27,58.75,62.81,58.75z M62.81,57.27c-0.36,0-0.65,0.29-0.65,0.65c0,0.36,0.29,0.65,0.65,0.65
				c0.36,0,0.65-0.29,0.65-0.65C63.46,57.56,63.17,57.27,62.81,57.27z"/>
			<path class="st7" d="M51.02,69.7c-0.46,0-0.84-0.38-0.84-0.84s0.38-0.84,0.84-0.84c0.46,0,0.84,0.38,0.84,0.84
				S51.48,69.7,51.02,69.7z M51.02,68.21c-0.36,0-0.65,0.29-0.65,0.65c0,0.36,0.29,0.65,0.65,0.65s0.65-0.29,0.65-0.65
				C51.67,68.5,51.38,68.21,51.02,68.21z"/>
			<path class="st7" d="M55.22,72.93c-0.46,0-0.84-0.38-0.84-0.84c0-0.46,0.38-0.84,0.84-0.84c0.46,0,0.84,0.38,0.84,0.84
				C56.05,72.55,55.68,72.93,55.22,72.93z M55.22,71.44c-0.36,0-0.65,0.29-0.65,0.65c0,0.36,0.29,0.65,0.65,0.65
				s0.65-0.29,0.65-0.65C55.86,71.73,55.57,71.44,55.22,71.44z"/>
			<path class="st7" d="M71.4,72.72c-0.46,0-0.84-0.38-0.84-0.84c0-0.46,0.37-0.84,0.84-0.84s0.84,0.38,0.84,0.84
				C72.23,72.35,71.86,72.72,71.4,72.72z M71.4,71.24c-0.36,0-0.65,0.29-0.65,0.65c0,0.36,0.29,0.65,0.65,0.65
				c0.36,0,0.65-0.29,0.65-0.65C72.05,71.53,71.75,71.24,71.4,71.24z"/>
			<path class="st7" d="M80.06,77.72c-0.46,0-0.84-0.38-0.84-0.84s0.37-0.84,0.84-0.84c0.46,0,0.84,0.38,0.84,0.84
				S80.52,77.72,80.06,77.72z M80.06,76.23c-0.36,0-0.65,0.29-0.65,0.65c0,0.36,0.29,0.65,0.65,0.65c0.36,0,0.65-0.29,0.65-0.65
				C80.71,76.52,80.42,76.23,80.06,76.23z"/>
			<path class="st7" d="M77.71,87.8c-0.46,0-0.84-0.38-0.84-0.84c0-0.46,0.37-0.84,0.84-0.84s0.84,0.38,0.84,0.84
				C78.54,87.42,78.17,87.8,77.71,87.8z M77.71,86.31c-0.36,0-0.65,0.29-0.65,0.65s0.29,0.65,0.65,0.65c0.36,0,0.65-0.29,0.65-0.65
				S78.06,86.31,77.71,86.31z"/>
			<path class="st7" d="M79.19,93.79c-0.46,0-0.84-0.37-0.84-0.84s0.37-0.84,0.84-0.84c0.46,0,0.84,0.37,0.84,0.84
				S79.65,93.79,79.19,93.79z M79.19,92.31c-0.36,0-0.65,0.29-0.65,0.65s0.29,0.65,0.65,0.65c0.36,0,0.65-0.29,0.65-0.65
				S79.55,92.31,79.19,92.31z"/>
			<path class="st7" d="M85.42,103.28c-0.46,0-0.84-0.37-0.84-0.84s0.38-0.84,0.84-0.84c0.46,0,0.84,0.37,0.84,0.84
				S85.88,103.28,85.42,103.28z M85.42,101.8c-0.36,0-0.65,0.29-0.65,0.65c0,0.36,0.29,0.65,0.65,0.65c0.36,0,0.65-0.29,0.65-0.65
				C86.07,102.09,85.78,101.8,85.42,101.8z"/>
			<path class="st7" d="M80.4,100.79c-0.46,0-0.84-0.38-0.84-0.84c0-0.46,0.38-0.84,0.84-0.84s0.84,0.37,0.84,0.84
				C81.24,100.41,80.86,100.79,80.4,100.79z M80.4,99.3c-0.36,0-0.65,0.29-0.65,0.65c0,0.36,0.29,0.65,0.65,0.65
				c0.36,0,0.65-0.29,0.65-0.65C81.05,99.59,80.76,99.3,80.4,99.3z"/>
			<path class="st7" d="M82.65,89.59c-0.46,0-0.84-0.38-0.84-0.84c0-0.46,0.37-0.84,0.84-0.84s0.84,0.38,0.84,0.84
				C83.49,89.22,83.11,89.59,82.65,89.59z M82.65,88.11c-0.36,0-0.65,0.29-0.65,0.65c0,0.36,0.29,0.65,0.65,0.65
				c0.36,0,0.65-0.29,0.65-0.65C83.3,88.4,83.01,88.11,82.65,88.11z"/>
			<path class="st7" d="M66.07,99.3c-0.46,0-0.84-0.37-0.84-0.84s0.37-0.84,0.84-0.84c0.46,0,0.84,0.37,0.84,0.84
				S66.53,99.3,66.07,99.3z M66.07,97.82c-0.36,0-0.65,0.29-0.65,0.65c0,0.36,0.29,0.65,0.65,0.65c0.36,0,0.65-0.29,0.65-0.65
				C66.72,98.11,66.43,97.82,66.07,97.82z"/>
			<path class="st7" d="M56.81,105.83c-0.46,0-0.84-0.37-0.84-0.84c0-0.46,0.38-0.84,0.84-0.84s0.84,0.37,0.84,0.84
				C57.65,105.46,57.27,105.83,56.81,105.83z M56.81,104.35c-0.36,0-0.65,0.29-0.65,0.65c0,0.36,0.29,0.65,0.65,0.65
				s0.65-0.29,0.65-0.65C57.46,104.64,57.17,104.35,56.81,104.35z"/>
			<path class="st7" d="M61.65,109.03c-0.46,0-0.84-0.37-0.84-0.84c0-0.46,0.37-0.84,0.84-0.84c0.46,0,0.84,0.37,0.84,0.84
				C62.49,108.66,62.11,109.03,61.65,109.03z M61.65,107.55c-0.36,0-0.65,0.29-0.65,0.65c0,0.36,0.29,0.65,0.65,0.65
				c0.36,0,0.65-0.29,0.65-0.65C62.3,107.84,62.01,107.55,61.65,107.55z"/>
			<path class="st7" d="M61.78,115.76c-0.46,0-0.84-0.37-0.84-0.84s0.38-0.84,0.84-0.84c0.46,0,0.84,0.37,0.84,0.84
				S62.24,115.76,61.78,115.76z M61.78,114.28c-0.36,0-0.65,0.29-0.65,0.65s0.29,0.65,0.65,0.65c0.36,0,0.65-0.29,0.65-0.65
				S62.14,114.28,61.78,114.28z"/>
			<path class="st7" d="M56.81,99.64c-0.46,0-0.84-0.37-0.84-0.84s0.38-0.84,0.84-0.84s0.84,0.37,0.84,0.84S57.27,99.64,56.81,99.64
				z M56.81,98.15c-0.36,0-0.65,0.29-0.65,0.65s0.29,0.65,0.65,0.65s0.65-0.29,0.65-0.65S57.17,98.15,56.81,98.15z"/>
			<path class="st7" d="M63.26,72.93c-0.46,0-0.84-0.38-0.84-0.84c0-0.46,0.37-0.84,0.84-0.84c0.46,0,0.84,0.38,0.84,0.84
				C64.1,72.55,63.72,72.93,63.26,72.93z M63.26,71.44c-0.36,0-0.65,0.29-0.65,0.65c0,0.36,0.29,0.65,0.65,0.65
				c0.36,0,0.65-0.29,0.65-0.65C63.91,71.73,63.62,71.44,63.26,71.44z"/>
			<path class="st7" d="M64.01,79.91c-0.46,0-0.84-0.38-0.84-0.84c0-0.46,0.37-0.84,0.84-0.84s0.84,0.38,0.84,0.84
				C64.84,79.54,64.47,79.91,64.01,79.91z M64.01,78.43c-0.36,0-0.65,0.29-0.65,0.65c0,0.36,0.29,0.65,0.65,0.65
				c0.36,0,0.65-0.29,0.65-0.65C64.65,78.72,64.36,78.43,64.01,78.43z"/>
			<path class="st7" d="M64.3,86.31c-0.46,0-0.84-0.38-0.84-0.84c0-0.46,0.37-0.84,0.84-0.84c0.46,0,0.84,0.38,0.84,0.84
				C65.13,85.94,64.76,86.31,64.3,86.31z M64.3,84.83c-0.36,0-0.65,0.29-0.65,0.65c0,0.36,0.29,0.65,0.65,0.65
				c0.36,0,0.65-0.29,0.65-0.65C64.95,85.12,64.65,84.83,64.3,84.83z"/>
			<path class="st7" d="M62.81,65.75c-0.46,0-0.84-0.38-0.84-0.84c0-0.46,0.37-0.84,0.84-0.84c0.46,0,0.84,0.38,0.84,0.84
				C63.65,65.38,63.27,65.75,62.81,65.75z M62.81,64.27c-0.36,0-0.65,0.29-0.65,0.65c0,0.36,0.29,0.65,0.65,0.65
				c0.36,0,0.65-0.29,0.65-0.65C63.46,64.56,63.17,64.27,62.81,64.27z"/>
			<path class="st7" d="M59.59,69.41c-0.46,0-0.84-0.38-0.84-0.84c0-0.46,0.38-0.84,0.84-0.84c0.46,0,0.84,0.38,0.84,0.84
				C60.42,69.03,60.05,69.41,59.59,69.41z M59.59,67.92c-0.36,0-0.65,0.29-0.65,0.65c0,0.36,0.29,0.65,0.65,0.65
				c0.36,0,0.65-0.29,0.65-0.65C60.24,68.21,59.95,67.92,59.59,67.92z"/>
			<path class="st7" d="M59.39,76.66c-0.46,0-0.84-0.38-0.84-0.84c0-0.46,0.38-0.84,0.84-0.84c0.46,0,0.84,0.38,0.84,0.84
				C60.23,76.28,59.85,76.66,59.39,76.66z M59.39,75.17c-0.36,0-0.65,0.29-0.65,0.65s0.29,0.65,0.65,0.65s0.65-0.29,0.65-0.65
				S59.75,75.17,59.39,75.17z"/>
			<path class="st7" d="M47.26,80.22c-0.46,0-0.84-0.38-0.84-0.84c0-0.46,0.38-0.84,0.84-0.84c0.46,0,0.84,0.38,0.84,0.84
				C48.09,79.85,47.72,80.22,47.26,80.22z M47.26,78.74c-0.36,0-0.65,0.29-0.65,0.65s0.29,0.65,0.65,0.65
				c0.36,0,0.65-0.29,0.65-0.65S47.61,78.74,47.26,78.74z"/>
			<path class="st7" d="M51.76,90.04c-0.46,0-0.84-0.37-0.84-0.84c0-0.46,0.38-0.84,0.84-0.84c0.46,0,0.84,0.38,0.84,0.84
				C52.6,89.67,52.22,90.04,51.76,90.04z M51.76,88.56c-0.36,0-0.65,0.29-0.65,0.65c0,0.36,0.29,0.65,0.65,0.65s0.65-0.29,0.65-0.65
				C52.41,88.85,52.12,88.56,51.76,88.56z"/>
			<path class="st7" d="M42.42,96.41c-0.46,0-0.84-0.37-0.84-0.84s0.38-0.84,0.84-0.84c0.46,0,0.84,0.37,0.84,0.84
				S42.88,96.41,42.42,96.41z M42.42,94.92c-0.36,0-0.65,0.29-0.65,0.65s0.29,0.65,0.65,0.65c0.36,0,0.65-0.29,0.65-0.65
				S42.78,94.92,42.42,94.92z"/>
			<path class="st7" d="M56.07,93.6c-0.46,0-0.84-0.37-0.84-0.84s0.38-0.84,0.84-0.84c0.46,0,0.84,0.38,0.84,0.84
				S56.53,93.6,56.07,93.6z M56.07,92.12c-0.36,0-0.65,0.29-0.65,0.65c0,0.36,0.29,0.65,0.65,0.65s0.65-0.29,0.65-0.65
				C56.72,92.41,56.43,92.12,56.07,92.12z"/>
			<path class="st7" d="M60.67,96.62c-0.46,0-0.84-0.37-0.84-0.84s0.37-0.84,0.84-0.84c0.46,0,0.84,0.37,0.84,0.84
				S61.13,96.62,60.67,96.62z M60.67,95.14c-0.36,0-0.65,0.29-0.65,0.65c0,0.36,0.29,0.65,0.65,0.65c0.36,0,0.65-0.29,0.65-0.65
				C61.32,95.43,61.02,95.14,60.67,95.14z"/>
			<path class="st7" d="M51.37,102.54c-0.46,0-0.84-0.37-0.84-0.84s0.38-0.84,0.84-0.84c0.46,0,0.84,0.38,0.84,0.84
				S51.83,102.54,51.37,102.54z M51.37,101.05c-0.36,0-0.65,0.29-0.65,0.65c0,0.36,0.29,0.65,0.65,0.65s0.65-0.29,0.65-0.65
				C52.02,101.34,51.73,101.05,51.37,101.05z"/>
			<path class="st7" d="M51.37,109.03c-0.46,0-0.84-0.37-0.84-0.84c0-0.46,0.38-0.84,0.84-0.84c0.46,0,0.84,0.37,0.84,0.84
				C52.21,108.66,51.83,109.03,51.37,109.03z M51.37,107.55c-0.36,0-0.65,0.29-0.65,0.65c0,0.36,0.29,0.65,0.65,0.65
				s0.65-0.29,0.65-0.65C52.02,107.84,51.73,107.55,51.37,107.55z"/>
			<path class="st7" d="M56.81,112.76c-0.46,0-0.84-0.37-0.84-0.84s0.38-0.84,0.84-0.84s0.84,0.37,0.84,0.84
				S57.27,112.76,56.81,112.76z M56.81,111.27c-0.36,0-0.65,0.29-0.65,0.65c0,0.36,0.29,0.65,0.65,0.65s0.65-0.29,0.65-0.65
				C57.46,111.56,57.17,111.27,56.81,111.27z"/>
			<path class="st7" d="M39.09,87.06c-0.46,0-0.84-0.38-0.84-0.84c0-0.46,0.38-0.84,0.84-0.84c0.46,0,0.84,0.38,0.84,0.84
				C39.93,86.68,39.55,87.06,39.09,87.06z M39.09,85.57c-0.36,0-0.65,0.29-0.65,0.65s0.29,0.65,0.65,0.65s0.65-0.29,0.65-0.65
				S39.45,85.57,39.09,85.57z"/>
			<path class="st7" d="M38.62,93.14c-0.46,0-0.84-0.37-0.84-0.84s0.38-0.84,0.84-0.84c0.46,0,0.84,0.37,0.84,0.84
				S39.08,93.14,38.62,93.14z M38.62,91.66c-0.36,0-0.65,0.29-0.65,0.65c0,0.36,0.29,0.65,0.65,0.65c0.36,0,0.65-0.29,0.65-0.65
				C39.27,91.95,38.98,91.66,38.62,91.66z"/>
			<path class="st7" d="M59.92,83.24c-0.46,0-0.84-0.38-0.84-0.84c0-0.46,0.38-0.84,0.84-0.84c0.46,0,0.84,0.38,0.84,0.84
				C60.76,82.86,60.39,83.24,59.92,83.24z M59.92,81.75c-0.36,0-0.65,0.29-0.65,0.65c0,0.36,0.29,0.65,0.65,0.65
				c0.36,0,0.65-0.29,0.65-0.65C60.57,82.05,60.28,81.75,59.92,81.75z"/>
			<path class="st7" d="M56.39,86.69c-0.46,0-0.84-0.38-0.84-0.84c0-0.46,0.38-0.84,0.84-0.84c0.46,0,0.84,0.38,0.84,0.84
				C57.22,86.32,56.85,86.69,56.39,86.69z M56.39,85.21c-0.36,0-0.65,0.29-0.65,0.65c0,0.36,0.29,0.65,0.65,0.65
				c0.36,0,0.65-0.29,0.65-0.65C57.03,85.5,56.74,85.21,56.39,85.21z"/>
			<path class="st7" d="M51.63,96.62c-0.46,0-0.84-0.37-0.84-0.84s0.38-0.84,0.84-0.84c0.46,0,0.84,0.37,0.84,0.84
				S52.1,96.62,51.63,96.62z M51.63,95.14c-0.36,0-0.65,0.29-0.65,0.65c0,0.36,0.29,0.65,0.65,0.65c0.36,0,0.65-0.29,0.65-0.65
				C52.28,95.43,51.99,95.14,51.63,95.14z"/>
			<path class="st7" d="M42.98,102.54c-0.46,0-0.84-0.37-0.84-0.84s0.38-0.84,0.84-0.84c0.46,0,0.84,0.38,0.84,0.84
				S43.44,102.54,42.98,102.54z M42.98,101.05c-0.36,0-0.65,0.29-0.65,0.65c0,0.36,0.29,0.65,0.65,0.65s0.65-0.29,0.65-0.65
				C43.63,101.34,43.34,101.05,42.98,101.05z"/>
			<path class="st7" d="M42.79,109.56c-0.46,0-0.84-0.37-0.84-0.84s0.38-0.84,0.84-0.84c0.46,0,0.84,0.38,0.84,0.84
				S43.25,109.56,42.79,109.56z M42.79,108.07c-0.36,0-0.65,0.29-0.65,0.65c0,0.36,0.29,0.65,0.65,0.65s0.65-0.29,0.65-0.65
				C43.44,108.36,43.15,108.07,42.79,108.07z"/>
			<path class="st7" d="M46.89,105.51c-0.46,0-0.84-0.37-0.84-0.84s0.38-0.84,0.84-0.84c0.46,0,0.84,0.38,0.84,0.84
				S47.35,105.51,46.89,105.51z M46.89,104.02c-0.36,0-0.65,0.29-0.65,0.65c0,0.36,0.29,0.65,0.65,0.65c0.36,0,0.65-0.29,0.65-0.65
				C47.54,104.31,47.25,104.02,46.89,104.02z"/>
			<path class="st7" d="M47.78,113.11c-0.46,0-0.84-0.37-0.84-0.84s0.38-0.84,0.84-0.84c0.46,0,0.84,0.37,0.84,0.84
				S48.25,113.11,47.78,113.11z M47.78,111.63c-0.36,0-0.65,0.29-0.65,0.65c0,0.36,0.29,0.65,0.65,0.65s0.65-0.29,0.65-0.65
				C48.43,111.92,48.14,111.63,47.78,111.63z"/>
			<path class="st7" d="M32.17,99.64c-0.46,0-0.84-0.37-0.84-0.84s0.38-0.84,0.84-0.84c0.46,0,0.84,0.37,0.84,0.84
				S32.63,99.64,32.17,99.64z M32.17,98.15c-0.36,0-0.65,0.29-0.65,0.65s0.29,0.65,0.65,0.65s0.65-0.29,0.65-0.65
				S32.52,98.15,32.17,98.15z"/>
			<path class="st7" d="M65.33,93.41c-0.46,0-0.84-0.37-0.84-0.84s0.38-0.84,0.84-0.84c0.46,0,0.84,0.38,0.84,0.84
				S65.79,93.41,65.33,93.41z M65.33,91.93c-0.36,0-0.65,0.29-0.65,0.65c0,0.36,0.29,0.65,0.65,0.65c0.36,0,0.65-0.29,0.65-0.65
				C65.98,92.22,65.69,91.93,65.33,91.93z"/>
			<path class="st7" d="M70.31,95.67c-0.46,0-0.84-0.37-0.84-0.84s0.38-0.84,0.84-0.84s0.84,0.38,0.84,0.84S70.77,95.67,70.31,95.67
				z M70.31,94.18c-0.36,0-0.65,0.29-0.65,0.65c0,0.36,0.29,0.65,0.65,0.65c0.36,0,0.65-0.29,0.65-0.65
				C70.96,94.47,70.66,94.18,70.31,94.18z"/>
			<path class="st7" d="M62.52,102.76c-0.46,0-0.84-0.37-0.84-0.84s0.37-0.84,0.84-0.84s0.84,0.37,0.84,0.84
				S62.98,102.76,62.52,102.76z M62.52,101.27c-0.36,0-0.65,0.29-0.65,0.65c0,0.36,0.29,0.65,0.65,0.65s0.65-0.29,0.65-0.65
				C63.17,101.56,62.88,101.27,62.52,101.27z"/>
			<path class="st7" d="M72.36,108.45c-0.46,0-0.84-0.37-0.84-0.84c0-0.46,0.37-0.84,0.84-0.84s0.84,0.38,0.84,0.84
				C73.19,108.08,72.82,108.45,72.36,108.45z M72.36,106.97c-0.36,0-0.65,0.29-0.65,0.65c0,0.36,0.29,0.65,0.65,0.65
				s0.65-0.29,0.65-0.65C73.01,107.26,72.72,106.97,72.36,106.97z"/>
			<path class="st7" d="M71.62,102.02c-0.46,0-0.84-0.37-0.84-0.84s0.38-0.84,0.84-0.84s0.84,0.37,0.84,0.84
				S72.08,102.02,71.62,102.02z M71.62,100.53c-0.36,0-0.65,0.29-0.65,0.65s0.29,0.65,0.65,0.65c0.36,0,0.65-0.29,0.65-0.65
				S71.97,100.53,71.62,100.53z"/>
			<path class="st7" d="M71.05,18.7c-0.46,0-0.84-0.38-0.84-0.84c0-0.46,0.37-0.84,0.84-0.84s0.84,0.38,0.84,0.84
				C71.88,18.32,71.51,18.7,71.05,18.7z M71.05,17.21c-0.36,0-0.65,0.29-0.65,0.65c0,0.36,0.29,0.65,0.65,0.65s0.65-0.29,0.65-0.65
				C71.7,17.5,71.41,17.21,71.05,17.21z"/>
			<path class="st7" d="M57.07,29.58c-0.46,0-0.84-0.38-0.84-0.84c0-0.46,0.38-0.84,0.84-0.84c0.46,0,0.84,0.38,0.84,0.84
				C57.9,29.21,57.53,29.58,57.07,29.58z M57.07,28.1c-0.36,0-0.65,0.29-0.65,0.65c0,0.36,0.29,0.65,0.65,0.65s0.65-0.29,0.65-0.65
				C57.72,28.39,57.43,28.1,57.07,28.1z"/>
			<path class="st7" d="M66.96,42.27c-0.46,0-0.84-0.38-0.84-0.84c0-0.46,0.38-0.84,0.84-0.84c0.46,0,0.84,0.38,0.84,0.84
				C67.79,41.89,67.42,42.27,66.96,42.27z M66.96,40.78c-0.36,0-0.65,0.29-0.65,0.65c0,0.36,0.29,0.65,0.65,0.65
				c0.36,0,0.65-0.29,0.65-0.65C67.61,41.08,67.32,40.78,66.96,40.78z"/>
			<path class="st7" d="M58.1,49.9c-0.46,0-0.84-0.38-0.84-0.84c0-0.46,0.38-0.84,0.84-0.84c0.46,0,0.84,0.38,0.84,0.84
				C58.94,49.53,58.56,49.9,58.1,49.9z M58.1,48.42c-0.36,0-0.65,0.29-0.65,0.65s0.29,0.65,0.65,0.65s0.65-0.29,0.65-0.65
				S58.46,48.42,58.1,48.42z"/>
			<path class="st7" d="M71.28,44.68c-0.46,0-0.84-0.38-0.84-0.84c0-0.46,0.37-0.84,0.84-0.84s0.84,0.38,0.84,0.84
				C72.12,44.31,71.74,44.68,71.28,44.68z M71.28,43.2c-0.36,0-0.65,0.29-0.65,0.65c0,0.36,0.29,0.65,0.65,0.65s0.65-0.29,0.65-0.65
				C71.93,43.49,71.64,43.2,71.28,43.2z"/>
			<path class="st7" d="M72.36,52.6c-0.46,0-0.84-0.38-0.84-0.84c0-0.46,0.37-0.84,0.84-0.84s0.84,0.38,0.84,0.84
				C73.19,52.22,72.82,52.6,72.36,52.6z M72.36,51.11c-0.36,0-0.65,0.29-0.65,0.65s0.29,0.65,0.65,0.65s0.65-0.29,0.65-0.65
				S72.72,51.11,72.36,51.11z"/>
			<path class="st7" d="M54.16,59.5c-0.46,0-0.84-0.38-0.84-0.84c0-0.46,0.38-0.84,0.84-0.84c0.46,0,0.84,0.38,0.84,0.84
				C55,59.12,54.62,59.5,54.16,59.5z M54.16,58.01c-0.36,0-0.65,0.29-0.65,0.65s0.29,0.65,0.65,0.65c0.36,0,0.65-0.29,0.65-0.65
				S54.52,58.01,54.16,58.01z"/>
			<path class="st7" d="M75.7,56.8c-0.46,0-0.84-0.38-0.84-0.84c0-0.46,0.37-0.84,0.84-0.84s0.84,0.38,0.84,0.84
				C76.53,56.43,76.16,56.8,75.7,56.8z M75.7,55.32c-0.36,0-0.65,0.29-0.65,0.65c0,0.36,0.29,0.65,0.65,0.65s0.65-0.29,0.65-0.65
				C76.34,55.61,76.05,55.32,75.7,55.32z"/>
			<path class="st7" d="M54.16,39.5c-0.46,0-0.84-0.38-0.84-0.84c0-0.46,0.38-0.84,0.84-0.84c0.46,0,0.84,0.38,0.84,0.84
				C55,39.12,54.62,39.5,54.16,39.5z M54.16,38.02c-0.36,0-0.65,0.29-0.65,0.65s0.29,0.65,0.65,0.65c0.36,0,0.65-0.29,0.65-0.65
				S54.52,38.02,54.16,38.02z"/>
			<path class="st7" d="M45.82,46.18c-0.46,0-0.84-0.38-0.84-0.84s0.38-0.84,0.84-0.84c0.46,0,0.84,0.38,0.84,0.84
				S46.28,46.18,45.82,46.18z M45.82,44.7c-0.36,0-0.65,0.29-0.65,0.65s0.29,0.65,0.65,0.65s0.65-0.29,0.65-0.65
				S46.18,44.7,45.82,44.7z"/>
			<path class="st7" d="M71.79,25.55c-0.46,0-0.84-0.38-0.84-0.84c0-0.46,0.37-0.84,0.84-0.84s0.84,0.38,0.84,0.84
				C72.63,25.18,72.25,25.55,71.79,25.55z M71.79,24.07c-0.36,0-0.65,0.29-0.65,0.65c0,0.36,0.29,0.65,0.65,0.65
				c0.36,0,0.65-0.29,0.65-0.65C72.44,24.36,72.15,24.07,71.79,24.07z"/>
			<path class="st7" d="M66.72,36.9c-0.46,0-0.84-0.38-0.84-0.84c0-0.46,0.37-0.84,0.84-0.84s0.84,0.38,0.84,0.84
				C67.55,36.53,67.18,36.9,66.72,36.9z M66.72,35.42c-0.36,0-0.65,0.29-0.65,0.65c0,0.36,0.29,0.65,0.65,0.65s0.65-0.29,0.65-0.65
				C67.37,35.71,67.08,35.42,66.72,35.42z"/>
			<path class="st7" d="M45,19.95c-0.46,0-0.84-0.38-0.84-0.84c0-0.46,0.38-0.84,0.84-0.84c0.46,0,0.84,0.38,0.84,0.84
				C45.83,19.58,45.46,19.95,45,19.95z M45,18.47c-0.36,0-0.65,0.29-0.65,0.65c0,0.36,0.29,0.65,0.65,0.65
				c0.36,0,0.65-0.29,0.65-0.65C45.64,18.76,45.35,18.47,45,18.47z"/>
			<path class="st7" d="M57.36,35.73c-0.46,0-0.84-0.38-0.84-0.84c0-0.46,0.38-0.84,0.84-0.84c0.46,0,0.84,0.38,0.84,0.84
				C58.2,35.36,57.82,35.73,57.36,35.73z M57.36,34.25c-0.36,0-0.65,0.29-0.65,0.65s0.29,0.65,0.65,0.65s0.65-0.29,0.65-0.65
				S57.72,34.25,57.36,34.25z"/>
			<path class="st7" d="M62.07,45.93c-0.46,0-0.84-0.38-0.84-0.84c0-0.46,0.37-0.84,0.84-0.84s0.84,0.38,0.84,0.84
				C62.91,45.55,62.53,45.93,62.07,45.93z M62.07,44.44c-0.36,0-0.65,0.29-0.65,0.65c0,0.36,0.29,0.65,0.65,0.65
				s0.65-0.29,0.65-0.65C62.72,44.74,62.43,44.44,62.07,44.44z"/>
			<path class="st7" d="M66.96,55.79c-0.46,0-0.84-0.38-0.84-0.84c0-0.46,0.38-0.84,0.84-0.84c0.46,0,0.84,0.38,0.84,0.84
				C67.79,55.41,67.42,55.79,66.96,55.79z M66.96,54.3c-0.36,0-0.65,0.29-0.65,0.65c0,0.36,0.29,0.65,0.65,0.65
				c0.36,0,0.65-0.29,0.65-0.65C67.61,54.59,67.32,54.3,66.96,54.3z"/>
			<path class="st7" d="M74.7,61.82c-0.46,0-0.84-0.38-0.84-0.84c0-0.46,0.37-0.84,0.84-0.84s0.84,0.38,0.84,0.84
				C75.54,61.45,75.16,61.82,74.7,61.82z M74.7,60.34c-0.36,0-0.65,0.29-0.65,0.65s0.29,0.65,0.65,0.65c0.36,0,0.65-0.29,0.65-0.65
				S75.06,60.34,74.7,60.34z"/>
			<path class="st7" d="M79.66,72.18c-0.46,0-0.84-0.38-0.84-0.84c0-0.46,0.37-0.84,0.84-0.84s0.84,0.38,0.84,0.84
				C80.5,71.81,80.12,72.18,79.66,72.18z M79.66,70.7c-0.36,0-0.65,0.29-0.65,0.65c0,0.36,0.29,0.65,0.65,0.65
				c0.36,0,0.65-0.29,0.65-0.65C80.31,70.99,80.02,70.7,79.66,70.7z"/>
			<path class="st7" d="M66.72,62.56c-0.46,0-0.84-0.38-0.84-0.84c0-0.46,0.37-0.84,0.84-0.84s0.84,0.38,0.84,0.84
				C67.55,62.19,67.18,62.56,66.72,62.56z M66.72,61.08c-0.36,0-0.65,0.29-0.65,0.65c0,0.36,0.29,0.65,0.65,0.65
				s0.65-0.29,0.65-0.65C67.37,61.37,67.08,61.08,66.72,61.08z"/>
			<path class="st7" d="M67.46,69.41c-0.46,0-0.84-0.38-0.84-0.84c0-0.46,0.37-0.84,0.84-0.84s0.84,0.38,0.84,0.84
				C68.3,69.03,67.92,69.41,67.46,69.41z M67.46,67.92c-0.36,0-0.65,0.29-0.65,0.65c0,0.36,0.29,0.65,0.65,0.65s0.65-0.29,0.65-0.65
				C68.11,68.21,67.82,67.92,67.46,67.92z"/>
			<path class="st7" d="M74.95,68.96c-0.46,0-0.84-0.38-0.84-0.84c0-0.46,0.38-0.84,0.84-0.84s0.84,0.38,0.84,0.84
				C75.79,68.58,75.42,68.96,74.95,68.96z M74.95,67.47c-0.36,0-0.65,0.29-0.65,0.65c0,0.36,0.29,0.65,0.65,0.65
				c0.36,0,0.65-0.29,0.65-0.65C75.6,67.76,75.31,67.47,74.95,67.47z"/>
			<path class="st7" d="M67.7,75.92c-0.46,0-0.84-0.38-0.84-0.84c0-0.46,0.37-0.84,0.84-0.84c0.46,0,0.84,0.38,0.84,0.84
				C68.54,75.54,68.16,75.92,67.7,75.92z M67.7,74.43c-0.36,0-0.65,0.29-0.65,0.65c0,0.36,0.29,0.65,0.65,0.65
				c0.36,0,0.65-0.29,0.65-0.65C68.35,74.72,68.06,74.43,67.7,74.43z"/>
			<path class="st7" d="M55.22,80.22c-0.46,0-0.84-0.38-0.84-0.84c0-0.46,0.38-0.84,0.84-0.84c0.46,0,0.84,0.38,0.84,0.84
				C56.05,79.85,55.68,80.22,55.22,80.22z M55.22,78.74c-0.36,0-0.65,0.29-0.65,0.65s0.29,0.65,0.65,0.65s0.65-0.29,0.65-0.65
				S55.57,78.74,55.22,78.74z"/>
			<path class="st7" d="M47.04,87.06c-0.46,0-0.84-0.38-0.84-0.84c0-0.46,0.38-0.84,0.84-0.84c0.46,0,0.84,0.38,0.84,0.84
				C47.88,86.68,47.5,87.06,47.04,87.06z M47.04,85.57c-0.36,0-0.65,0.29-0.65,0.65s0.29,0.65,0.65,0.65c0.36,0,0.65-0.29,0.65-0.65
				S47.4,85.57,47.04,85.57z"/>
			<path class="st7" d="M47.04,93.5c-0.46,0-0.84-0.37-0.84-0.84s0.38-0.84,0.84-0.84c0.46,0,0.84,0.37,0.84,0.84
				S47.5,93.5,47.04,93.5z M47.04,92.02c-0.36,0-0.65,0.29-0.65,0.65s0.29,0.65,0.65,0.65c0.36,0,0.65-0.29,0.65-0.65
				S47.4,92.02,47.04,92.02z"/>
			<path class="st7" d="M46.73,99.3c-0.46,0-0.84-0.37-0.84-0.84s0.38-0.84,0.84-0.84c0.46,0,0.84,0.37,0.84,0.84
				S47.19,99.3,46.73,99.3z M46.73,97.82c-0.36,0-0.65,0.29-0.65,0.65c0,0.36,0.29,0.65,0.65,0.65c0.36,0,0.65-0.29,0.65-0.65
				C47.38,98.11,47.09,97.82,46.73,97.82z"/>
			<path class="st7" d="M34.86,102.99c-0.46,0-0.84-0.38-0.84-0.84s0.38-0.84,0.84-0.84c0.46,0,0.84,0.37,0.84,0.84
				S35.32,102.99,34.86,102.99z M34.86,101.51c-0.36,0-0.65,0.29-0.65,0.65c0,0.36,0.29,0.65,0.65,0.65s0.65-0.29,0.65-0.65
				C35.51,101.8,35.21,101.51,34.86,101.51z"/>
			<path class="st7" d="M35.39,109.56c-0.46,0-0.84-0.37-0.84-0.84s0.38-0.84,0.84-0.84c0.46,0,0.84,0.38,0.84,0.84
				S35.85,109.56,35.39,109.56z M35.39,108.07c-0.36,0-0.65,0.29-0.65,0.65c0,0.36,0.29,0.65,0.65,0.65s0.65-0.29,0.65-0.65
				C36.04,108.36,35.75,108.07,35.39,108.07z"/>
			<path class="st7" d="M38.35,99.3c-0.46,0-0.84-0.37-0.84-0.84s0.38-0.84,0.84-0.84c0.46,0,0.84,0.37,0.84,0.84
				S38.81,99.3,38.35,99.3z M38.35,97.82c-0.36,0-0.65,0.29-0.65,0.65c0,0.36,0.29,0.65,0.65,0.65S39,98.82,39,98.46
				C39,98.11,38.71,97.82,38.35,97.82z"/>
			<path class="st7" d="M31.62,106.86c-0.46,0-0.84-0.37-0.84-0.84c0-0.46,0.38-0.84,0.84-0.84c0.46,0,0.84,0.37,0.84,0.84
				C32.45,106.49,32.08,106.86,31.62,106.86z M31.62,105.38c-0.36,0-0.65,0.29-0.65,0.65c0,0.36,0.29,0.65,0.65,0.65
				c0.36,0,0.65-0.29,0.65-0.65C32.27,105.67,31.98,105.38,31.62,105.38z"/>
			<path class="st7" d="M39.21,105.69c-0.46,0-0.84-0.38-0.84-0.84s0.38-0.84,0.84-0.84c0.46,0,0.84,0.37,0.84,0.84
				S39.67,105.69,39.21,105.69z M39.21,104.2c-0.36,0-0.65,0.29-0.65,0.65c0,0.36,0.29,0.65,0.65,0.65s0.65-0.29,0.65-0.65
				C39.86,104.49,39.56,104.2,39.21,104.2z"/>
			<path class="st7" d="M72.36,78.74c-0.46,0-0.84-0.38-0.84-0.84c0-0.46,0.37-0.84,0.84-0.84s0.84,0.38,0.84,0.84
				C73.19,78.36,72.82,78.74,72.36,78.74z M72.36,77.25c-0.36,0-0.65,0.29-0.65,0.65c0,0.36,0.29,0.65,0.65,0.65
				s0.65-0.29,0.65-0.65C73.01,77.54,72.72,77.25,72.36,77.25z"/>
			<path class="st7" d="M81.54,83.74c-0.46,0-0.84-0.38-0.84-0.84c0-0.46,0.38-0.84,0.84-0.84c0.46,0,0.84,0.38,0.84,0.84
				C82.38,83.37,82,83.74,81.54,83.74z M81.54,82.26c-0.36,0-0.65,0.29-0.65,0.65c0,0.36,0.29,0.65,0.65,0.65
				c0.36,0,0.65-0.29,0.65-0.65C82.19,82.55,81.9,82.26,81.54,82.26z"/>
			<path class="st7" d="M73.1,85.57c-0.46,0-0.84-0.38-0.84-0.84c0-0.46,0.37-0.84,0.84-0.84s0.84,0.38,0.84,0.84
				C73.94,85.2,73.56,85.57,73.1,85.57z M73.1,84.09c-0.36,0-0.65,0.29-0.65,0.65c0,0.36,0.29,0.65,0.65,0.65s0.65-0.29,0.65-0.65
				C73.75,84.38,73.46,84.09,73.1,84.09z"/>
			<path class="st7" d="M68.95,83c-0.46,0-0.84-0.38-0.84-0.84c0-0.46,0.38-0.84,0.84-0.84s0.84,0.38,0.84,0.84
				C69.78,82.62,69.41,83,68.95,83z M68.95,81.52c-0.36,0-0.65,0.29-0.65,0.65c0,0.36,0.29,0.65,0.65,0.65
				c0.36,0,0.65-0.29,0.65-0.65C69.59,81.81,69.3,81.52,68.95,81.52z"/>
			<path class="st7" d="M60.67,90.04c-0.46,0-0.84-0.37-0.84-0.84c0-0.46,0.37-0.84,0.84-0.84c0.46,0,0.84,0.38,0.84,0.84
				C61.5,89.67,61.13,90.04,60.67,90.04z M60.67,88.56c-0.36,0-0.65,0.29-0.65,0.65c0,0.36,0.29,0.65,0.65,0.65
				c0.36,0,0.65-0.29,0.65-0.65C61.32,88.85,61.02,88.56,60.67,88.56z"/>
			<path class="st7" d="M76.04,75.49c-0.46,0-0.84-0.38-0.84-0.84c0-0.46,0.37-0.84,0.84-0.84s0.84,0.38,0.84,0.84
				C76.87,75.12,76.5,75.49,76.04,75.49z M76.04,74.01c-0.36,0-0.65,0.29-0.65,0.65c0,0.36,0.29,0.65,0.65,0.65
				c0.36,0,0.65-0.29,0.65-0.65C76.68,74.3,76.39,74.01,76.04,74.01z"/>
			<path class="st7" d="M76.97,81.75c-0.46,0-0.84-0.38-0.84-0.84c0-0.46,0.38-0.84,0.84-0.84s0.84,0.38,0.84,0.84
				C77.8,81.38,77.43,81.75,76.97,81.75z M76.97,80.27c-0.36,0-0.65,0.29-0.65,0.65c0,0.36,0.29,0.65,0.65,0.65
				c0.36,0,0.65-0.29,0.65-0.65C77.61,80.56,77.32,80.27,76.97,80.27z"/>
			<path class="st7" d="M68.95,89.3c-0.46,0-0.84-0.38-0.84-0.84c0-0.46,0.38-0.84,0.84-0.84s0.84,0.38,0.84,0.84
				C69.78,88.93,69.41,89.3,68.95,89.3z M68.95,87.82c-0.36,0-0.65,0.29-0.65,0.65c0,0.36,0.29,0.65,0.65,0.65
				c0.36,0,0.65-0.29,0.65-0.65C69.59,88.11,69.3,87.82,68.95,87.82z"/>
			<path class="st7" d="M75.29,97.89c-0.46,0-0.84-0.38-0.84-0.84s0.37-0.84,0.84-0.84s0.84,0.37,0.84,0.84S75.76,97.89,75.29,97.89
				z M75.29,96.41c-0.36,0-0.65,0.29-0.65,0.65c0,0.36,0.29,0.65,0.65,0.65c0.36,0,0.65-0.29,0.65-0.65
				C75.94,96.7,75.65,96.41,75.29,96.41z"/>
			<path class="st7" d="M66.96,106.13c-0.46,0-0.84-0.37-0.84-0.84c0-0.46,0.38-0.84,0.84-0.84c0.46,0,0.84,0.37,0.84,0.84
				C67.79,105.76,67.42,106.13,66.96,106.13z M66.96,104.65c-0.36,0-0.65,0.29-0.65,0.65c0,0.36,0.29,0.65,0.65,0.65
				c0.36,0,0.65-0.29,0.65-0.65C67.61,104.94,67.32,104.65,66.96,104.65z"/>
			<path class="st7" d="M77.71,111.27c-0.46,0-0.84-0.38-0.84-0.84s0.37-0.84,0.84-0.84s0.84,0.37,0.84,0.84
				S78.17,111.27,77.71,111.27z M77.71,109.79c-0.36,0-0.65,0.29-0.65,0.65c0,0.36,0.29,0.65,0.65,0.65c0.36,0,0.65-0.29,0.65-0.65
				C78.36,110.08,78.06,109.79,77.71,109.79z"/>
			<path class="st7" d="M66.81,112.5c-0.46,0-0.84-0.38-0.84-0.84s0.37-0.84,0.84-0.84c0.46,0,0.84,0.37,0.84,0.84
				S67.27,112.5,66.81,112.5z M66.81,111.02c-0.36,0-0.65,0.29-0.65,0.65c0,0.36,0.29,0.65,0.65,0.65c0.36,0,0.65-0.29,0.65-0.65
				C67.46,111.31,67.17,111.02,66.81,111.02z"/>
			<path class="st7" d="M74.03,91.64c-0.46,0-0.84-0.37-0.84-0.84c0-0.46,0.38-0.84,0.84-0.84c0.46,0,0.84,0.37,0.84,0.84
				C74.87,91.26,74.49,91.64,74.03,91.64z M74.03,90.16c-0.36,0-0.65,0.29-0.65,0.65c0,0.36,0.29,0.65,0.65,0.65
				c0.36,0,0.65-0.29,0.65-0.65C74.68,90.45,74.39,90.16,74.03,90.16z"/>
			<path class="st7" d="M84.13,96.41c-0.46,0-0.84-0.37-0.84-0.84s0.37-0.84,0.84-0.84c0.46,0,0.84,0.37,0.84,0.84
				S84.6,96.41,84.13,96.41z M84.13,94.92c-0.36,0-0.65,0.29-0.65,0.65s0.29,0.65,0.65,0.65c0.36,0,0.65-0.29,0.65-0.65
				S84.49,94.92,84.13,94.92z"/>
			<path class="st7" d="M76.78,104.76c-0.46,0-0.84-0.38-0.84-0.84s0.37-0.84,0.84-0.84c0.46,0,0.84,0.37,0.84,0.84
				S77.24,104.76,76.78,104.76z M76.78,103.28c-0.36,0-0.65,0.29-0.65,0.65c0,0.36,0.29,0.65,0.65,0.65c0.36,0,0.65-0.29,0.65-0.65
				C77.43,103.57,77.14,103.28,76.78,103.28z"/>
			<path class="st7" d="M81.91,107.62c-0.46,0-0.84-0.37-0.84-0.84s0.38-0.84,0.84-0.84s0.84,0.37,0.84,0.84
				S82.37,107.62,81.91,107.62z M81.91,106.13c-0.36,0-0.65,0.29-0.65,0.65s0.29,0.65,0.65,0.65c0.36,0,0.65-0.29,0.65-0.65
				S82.27,106.13,81.91,106.13z"/>
			<path class="st7" d="M75.7,47.67c-0.46,0-0.84-0.38-0.84-0.84c0-0.46,0.37-0.84,0.84-0.84s0.84,0.38,0.84,0.84
				C76.53,47.29,76.16,47.67,75.7,47.67z M75.7,46.18c-0.36,0-0.65,0.29-0.65,0.65s0.29,0.65,0.65,0.65s0.65-0.29,0.65-0.65
				S76.05,46.18,75.7,46.18z"/>
			<path class="st7" d="M66.72,29.29c-0.46,0-0.84-0.38-0.84-0.84c0-0.46,0.37-0.84,0.84-0.84s0.84,0.38,0.84,0.84
				C67.55,28.92,67.18,29.29,66.72,29.29z M66.72,27.81c-0.36,0-0.65,0.29-0.65,0.65c0,0.36,0.29,0.65,0.65,0.65
				s0.65-0.29,0.65-0.65C67.37,28.1,67.08,27.81,66.72,27.81z"/>
			<path class="st7" d="M72.77,39.89c-0.46,0-0.84-0.38-0.84-0.84c0-0.46,0.38-0.84,0.84-0.84s0.84,0.38,0.84,0.84
				C73.6,39.51,73.23,39.89,72.77,39.89z M72.77,38.4c-0.36,0-0.65,0.29-0.65,0.65c0,0.36,0.29,0.65,0.65,0.65
				c0.36,0,0.65-0.29,0.65-0.65C73.41,38.69,73.12,38.4,72.77,38.4z"/>
			<path class="st7" d="M74.22,15.22c-0.46,0-0.84-0.38-0.84-0.84c0-0.46,0.38-0.84,0.84-0.84s0.84,0.38,0.84,0.84
				C75.06,14.84,74.68,15.22,74.22,15.22z M74.22,13.73c-0.36,0-0.65,0.29-0.65,0.65s0.29,0.65,0.65,0.65
				c0.36,0,0.65-0.29,0.65-0.65S74.58,13.73,74.22,13.73z"/>
			<path class="st7" d="M46.73,30.32c-0.46,0-0.84-0.38-0.84-0.84c0-0.46,0.38-0.84,0.84-0.84c0.46,0,0.84,0.38,0.84,0.84
				C47.56,29.95,47.19,30.32,46.73,30.32z M46.73,28.84c-0.36,0-0.65,0.29-0.65,0.65c0,0.36,0.29,0.65,0.65,0.65
				c0.36,0,0.65-0.29,0.65-0.65C47.38,29.13,47.09,28.84,46.73,28.84z"/>
			<path class="st7" d="M44.58,35.42c-0.46,0-0.84-0.38-0.84-0.84c0-0.46,0.38-0.84,0.84-0.84c0.46,0,0.84,0.38,0.84,0.84
				C45.42,35.04,45.04,35.42,44.58,35.42z M44.58,33.93c-0.36,0-0.65,0.29-0.65,0.65c0,0.36,0.29,0.65,0.65,0.65
				s0.65-0.29,0.65-0.65C45.23,34.22,44.94,33.93,44.58,33.93z"/>
			<path class="st7" d="M47.31,14.88c-0.46,0-0.84-0.38-0.84-0.84c0-0.46,0.38-0.84,0.84-0.84c0.46,0,0.84,0.38,0.84,0.84
				C48.14,14.5,47.77,14.88,47.31,14.88z M47.31,13.39c-0.36,0-0.65,0.29-0.65,0.65s0.29,0.65,0.65,0.65s0.65-0.29,0.65-0.65
				S47.66,13.39,47.31,13.39z"/>
		</g>
		<g>
			<path class="st7" d="M63.09,51.42c-3.42-0.12-6.8,0.35-10.19,0.68c-3.09,0.3-6.55,0.33-9.37-1.11c-0.06-0.03-0.12,0.07-0.05,0.1
				c1.43,0.68,2.92,1.19,4.48,1.43c1.54,0.24,3.1,0.27,4.65,0.2c3.52-0.17,6.96-1.11,10.49-1.2C63.15,51.51,63.15,51.42,63.09,51.42
				z"/>
			<path class="st7" d="M75.13,50.69c-2.89,1.3-6.19,1.4-9.31,1.49c-1.68,0.05-3.37,0.04-5.05,0.15c-1.67,0.11-3.31,0.35-4.96,0.64
				c-0.07,0.01-0.04,0.12,0.03,0.1c1.75-0.41,3.57-0.37,5.36-0.34c1.7,0.03,3.4,0.12,5.1,0.1c3.1-0.05,6.12-0.57,8.86-2.09
				C75.19,50.71,75.16,50.67,75.13,50.69z"/>
			<path class="st7" d="M46.68,83.25c-0.65,3.76-1.55,7.49-2.24,11.24c-0.69,3.78-1.37,7.56-1.92,11.37
				c-0.31,2.15-0.65,4.29-0.94,6.45c-0.01,0.05,0.07,0.08,0.08,0.02c1.65-7.47,3.04-15.01,4.15-22.57c0.32-2.16,0.58-4.33,0.97-6.48
				C46.8,83.21,46.69,83.18,46.68,83.25z"/>
			<path class="st7" d="M47.56,93.64c-0.12,1.68-0.35,3.35-0.51,5.03c-0.16,1.62-0.33,3.24-0.47,4.86c-0.14,1.6-0.27,3.21-0.36,4.81
				c-0.1,1.65-0.06,3.29-0.02,4.94c0,0.07,0.1,0.07,0.11,0c0.11-1.65,0.34-3.3,0.47-4.96c0.13-1.6,0.26-3.21,0.37-4.81
				c0.1-1.62,0.18-3.23,0.27-4.85c0.09-1.68,0.11-3.35,0.26-5.03C47.68,93.57,47.56,93.57,47.56,93.64z"/>
			<path class="st7" d="M75.93,107.48c-0.25-1.51-0.56-3.01-0.86-4.51c-0.6-2.99-1.28-5.97-1.98-8.95
				c-0.39-1.66-0.74-3.33-1.07-5.01c-0.01-0.07-0.12-0.04-0.1,0.03c1.2,5.93,1.98,11.94,3.28,17.85c0.18,0.84,0.39,1.68,0.6,2.52
				c0.21,0.83,0.37,1.69,0.63,2.51c0.03,0.09,0.17,0.07,0.16-0.03C76.46,110.42,76.17,108.94,75.93,107.48z"/>
		</g>
	</g>
</g>
<rect x="173.71" y="46.74" class="st8" width="65" height="20"/>
<rect x="173.71" y="71.75" class="st0" width="65" height="20"/>
<g>
	<path class="st7" d="M193.33,51.39h-3.62v-1.31h8.81v1.31h-3.64v10.59h-1.55V51.39z"/>
	<path class="st7" d="M206.27,57.64c0,3.16-2.19,4.54-4.25,4.54c-2.31,0-4.1-1.69-4.1-4.4c0-2.86,1.87-4.54,4.24-4.54
		C204.62,53.25,206.27,55.03,206.27,57.64z M199.5,57.73c0,1.87,1.08,3.28,2.59,3.28c1.48,0,2.6-1.39,2.6-3.32
		c0-1.45-0.72-3.28-2.56-3.28C200.29,54.41,199.5,56.11,199.5,57.73z"/>
	<path class="st7" d="M208.24,56.23c0-1.09-0.04-1.98-0.07-2.79h1.4l0.07,1.47h0.04c0.64-1.04,1.64-1.66,3.04-1.66
		c2.07,0,3.62,1.75,3.62,4.34c0,3.07-1.87,4.59-3.88,4.59c-1.13,0-2.12-0.49-2.63-1.34h-0.04v4.64h-1.54V56.23z M209.77,58.51
		c0,0.23,0.04,0.44,0.07,0.64c0.28,1.08,1.22,1.82,2.33,1.82c1.64,0,2.6-1.34,2.6-3.3c0-1.71-0.9-3.18-2.54-3.18
		c-1.06,0-2.05,0.76-2.35,1.92c-0.05,0.19-0.11,0.42-0.11,0.64V58.51z"/>
</g>
<g>
	<path class="st7" d="M179.88,75.22c0.67-0.14,1.73-0.25,2.81-0.25c1.54,0,2.53,0.26,3.27,0.87c0.62,0.46,0.99,1.17,0.99,2.1
		c0,1.15-0.76,2.15-2.01,2.61v0.04c1.13,0.28,2.45,1.22,2.45,2.98c0,1.02-0.41,1.8-1.01,2.38c-0.83,0.76-2.17,1.11-4.11,1.11
		c-1.06,0-1.87-0.07-2.38-0.14V75.22z M181.42,80.1h1.39c1.62,0,2.58-0.85,2.58-1.99c0-1.4-1.06-1.94-2.61-1.94
		c-0.71,0-1.11,0.05-1.36,0.11V80.1z M181.42,85.8c0.3,0.05,0.74,0.07,1.29,0.07c1.59,0,3.05-0.58,3.05-2.31
		c0-1.62-1.39-2.29-3.07-2.29h-1.27V85.8z"/>
	<path class="st7" d="M197.21,82.62c0,3.16-2.19,4.54-4.25,4.54c-2.31,0-4.1-1.69-4.1-4.4c0-2.86,1.87-4.54,4.24-4.54
		C195.55,78.22,197.21,80.01,197.21,82.62z M190.43,82.71c0,1.87,1.08,3.28,2.59,3.28c1.48,0,2.6-1.39,2.6-3.32
		c0-1.45-0.72-3.28-2.56-3.28C191.22,79.39,190.43,81.08,190.43,82.71z"/>
	<path class="st7" d="M201.04,75.96v2.45h2.22v1.18h-2.22v4.61c0,1.06,0.3,1.66,1.17,1.66c0.41,0,0.71-0.05,0.9-0.11l0.07,1.17
		c-0.3,0.12-0.78,0.21-1.38,0.21c-0.72,0-1.31-0.23-1.68-0.65c-0.44-0.46-0.6-1.22-0.6-2.22V79.6h-1.32v-1.18h1.32v-2.05
		L201.04,75.96z"/>
	<path class="st7" d="M206.88,75.96v2.45h2.22v1.18h-2.22v4.61c0,1.06,0.3,1.66,1.17,1.66c0.41,0,0.71-0.05,0.9-0.11l0.07,1.17
		c-0.3,0.12-0.78,0.21-1.38,0.21c-0.72,0-1.31-0.23-1.68-0.65c-0.44-0.46-0.6-1.22-0.6-2.22V79.6h-1.32v-1.18h1.32v-2.05
		L206.88,75.96z"/>
	<path class="st7" d="M218.48,82.62c0,3.16-2.19,4.54-4.25,4.54c-2.31,0-4.1-1.69-4.1-4.4c0-2.86,1.87-4.54,4.24-4.54
		C216.83,78.22,218.48,80.01,218.48,82.62z M211.71,82.71c0,1.87,1.08,3.28,2.59,3.28c1.48,0,2.6-1.39,2.6-3.32
		c0-1.45-0.72-3.28-2.56-3.28C212.5,79.39,211.71,81.08,211.71,82.71z"/>
	<path class="st7" d="M220.45,80.73c0-0.88-0.02-1.61-0.07-2.31h1.36l0.07,1.38h0.05c0.48-0.81,1.27-1.57,2.68-1.57
		c1.17,0,2.05,0.71,2.42,1.71H227c0.26-0.48,0.6-0.85,0.95-1.11c0.51-0.39,1.08-0.6,1.89-0.6c1.13,0,2.81,0.74,2.81,3.71v5.03h-1.52
		v-4.84c0-1.64-0.6-2.63-1.85-2.63c-0.88,0-1.57,0.65-1.84,1.41c-0.07,0.21-0.12,0.49-0.12,0.78v5.28h-1.52v-5.12
		c0-1.36-0.6-2.35-1.78-2.35c-0.97,0-1.68,0.78-1.92,1.55c-0.09,0.23-0.12,0.49-0.12,0.76v5.16h-1.52V80.73z"/>
</g>
<rect x="112.56" y="56.09" class="st8" width="65.58" height="3"/>
</svg>
